<?xml version="1.0" encoding="UTF-8" standalone="no"?>
<!-- Created with Inkscape (http://www.inkscape.org/) -->

<svg
   width="5.2916665mm"
   height="5.2916665mm"
   viewBox="0 0 5.2916665 5.2916665"
   version="1.1"
   id="svg8"
   inkscape:version="1.1.1 (1:1.1+202109281949+c3084ef5ed)"
   sodipodi:docname="btn-redes_sociales.svg"
   xmlns:inkscape="http://www.inkscape.org/namespaces/inkscape"
   xmlns:sodipodi="http://sodipodi.sourceforge.net/DTD/sodipodi-0.dtd"
   xmlns="http://www.w3.org/2000/svg"
   xmlns:svg="http://www.w3.org/2000/svg"
   xmlns:rdf="http://www.w3.org/1999/02/22-rdf-syntax-ns#"
   xmlns:cc="http://creativecommons.org/ns#"
   xmlns:dc="http://purl.org/dc/elements/1.1/">
  <defs
     id="defs2" />
  <sodipodi:namedview
     id="base"
     pagecolor="#d2d2d2"
     bordercolor="#666666"
     borderopacity="1.0"
     inkscape:pageopacity="0"
     inkscape:pageshadow="2"
     inkscape:zoom="16"
     inkscape:cx="7.28125"
     inkscape:cy="11.40625"
     inkscape:document-units="mm"
     inkscape:current-layer="g1327"
     showgrid="false"
     inkscape:window-width="1366"
     inkscape:window-height="743"
     inkscape:window-x="0"
     inkscape:window-y="0"
     inkscape:window-maximized="1"
     inkscape:pagecheckerboard="0" />
  <metadata
     id="metadata5">
    <rdf:RDF>
      <cc:Work
         rdf:about="">
        <dc:format>image/svg+xml</dc:format>
        <dc:type
           rdf:resource="http://purl.org/dc/dcmitype/StillImage" />
      </cc:Work>
    </rdf:RDF>
  </metadata>
  <g
     inkscape:label="Capa 1"
     inkscape:groupmode="layer"
     id="layer1"
     transform="translate(-76.904732,-30.829586)">
    <path
       id="rect844"
       style="fill:#4d4d4d;fill-opacity:0.992157;fill-rule:evenodd;stroke-width:0.041726;stroke-linecap:round;stroke-linejoin:round;paint-order:stroke fill markers;stop-color:#000000;opacity:0"
       d="m 76.904732,30.829586 h 5.291666 v 5.291667 h -5.291666 z" />
    <g
       id="g1327"
       transform="matrix(0.48904686,0,0,0.48904686,39.250713,18.742272)"
       style="fill:#ffffff">
      <path
         id="path938"
         style="fill:#ffffff;fill-opacity:0.992157;fill-rule:evenodd;stroke-width:0.364436;stroke-linecap:round;stroke-linejoin:round;paint-order:stroke fill markers;stop-color:#000000"
         d="m 87.029454,30.126249 a 1.746686,1.746686 0 0 1 -1.746685,1.746686 1.746686,1.746686 0 0 1 -1.746686,-1.746686 1.746686,1.746686 0 0 1 1.746686,-1.746685 1.746686,1.746686 0 0 1 1.746685,1.746685 z" />
      <path
         id="path1131"
         style="fill:#ffffff;fill-opacity:0.992157;fill-rule:evenodd;stroke-width:0.3017;stroke-linecap:round;stroke-linejoin:round;paint-order:stroke fill markers;stop-color:#000000"
         d="m 80.973007,33.439165 a 1.4460001,1.4460001 0 0 1 -1.445999,1.446 1.4460001,1.4460001 0 0 1 -1.446,-1.446 1.4460001,1.4460001 0 0 1 1.446,-1.445999 1.4460001,1.4460001 0 0 1 1.445999,1.445999 z" />
      <path
         id="path1133"
         style="fill:#ffffff;fill-opacity:0.992157;fill-rule:evenodd;stroke-width:0.3017;stroke-linecap:round;stroke-linejoin:round;paint-order:stroke fill markers;stop-color:#000000"
         d="m 80.973007,26.813332 a 1.4460001,1.4460001 0 0 1 -1.445999,1.446 1.4460001,1.4460001 0 0 1 -1.446,-1.446 1.4460001,1.4460001 0 0 1 1.446,-1.445999 1.4460001,1.4460001 0 0 1 1.445999,1.445999 z" />
      <rect
         style="fill:#ffffff;fill-opacity:0.992157;fill-rule:evenodd;stroke:none;stroke-width:0.265115;stroke-linecap:round;stroke-linejoin:round;-inkscape-stroke:none;paint-order:stroke fill markers;stop-color:#000000"
         id="rect1157"
         width="5.8009109"
         height="1.1601822"
         x="82.792595"
         y="-17.180912"
         transform="rotate(30)" />
      <rect
         style="fill:#ffffff;fill-opacity:0.992157;fill-rule:evenodd;stroke:none;stroke-width:0.265115;stroke-linecap:round;stroke-linejoin:round;-inkscape-stroke:none;paint-order:stroke fill markers;stop-color:#000000"
         id="rect1239"
         width="5.8009109"
         height="1.1601822"
         x="52.666344"
         y="-69.361107"
         transform="matrix(0.8660254,-0.5,-0.5,-0.8660254,0,0)" />
    </g>
  </g>
</svg>
