<?xml version="1.0" encoding="UTF-8" standalone="no"?>
<svg
   inkscape:version="1.3.2 (1:1.3.2+202311252150+091e20ef0f)"
   sodipodi:docname="ha_logo.svg"
   xml:space="preserve"
   enable-background="new 0 0 487.113 126.647"
   viewBox="0 0 499.99999 140"
   height="140"
   width="500"
   y="0px"
   x="0px"
   id="Capa_1"
   version="1.1"
   xmlns:inkscape="http://www.inkscape.org/namespaces/inkscape"
   xmlns:sodipodi="http://sodipodi.sourceforge.net/DTD/sodipodi-0.dtd"
   xmlns="http://www.w3.org/2000/svg"
   xmlns:svg="http://www.w3.org/2000/svg"
   xmlns:rdf="http://www.w3.org/1999/02/22-rdf-syntax-ns#"
   xmlns:cc="http://creativecommons.org/ns#"
   xmlns:dc="http://purl.org/dc/elements/1.1/"><metadata
   id="metadata52"><rdf:RDF><cc:Work
       rdf:about=""><dc:format>image/svg+xml</dc:format><dc:type
         rdf:resource="http://purl.org/dc/dcmitype/StillImage" /></cc:Work></rdf:RDF></metadata><defs
   id="defs50" /><sodipodi:namedview
   inkscape:current-layer="g92"
   inkscape:window-maximized="1"
   inkscape:window-y="0"
   inkscape:window-x="0"
   inkscape:cy="118.61224"
   inkscape:cx="220.63846"
   inkscape:zoom="1.5773271"
   showguides="false"
   showgrid="false"
   id="namedview48"
   inkscape:window-height="743"
   inkscape:window-width="1366"
   inkscape:pageshadow="2"
   inkscape:pageopacity="0"
   guidetolerance="10"
   gridtolerance="10"
   objecttolerance="10"
   borderopacity="1"
   bordercolor="#666666"
   pagecolor="#ffffff"
   inkscape:showpageshadow="2"
   inkscape:pagecheckerboard="0"
   inkscape:deskcolor="#d1d1d1" />

<g
   inkscape:groupmode="layer"
   inkscape:label="Capa 1"
   transform="translate(12.580115,-153.89098)"
   id="layer1_1_">
	
	
	
	
	
	
	
	
	
	
	
	
	
	
	
	
	
	
	
	
	
	
	
	
	
	
	
	
	
	
	
	
	
	
	
	
	
	
</g>
<rect
   fill="#FFFFFF"
   width="500"
   height="140"
   id="rect2"
   style="opacity:0;fill:#ffffff;stroke-width:1.06521"
   x="0"
   y="0" /><g
   transform="translate(11.714875,-150.92051)"
   id="g92"><path
     transform="translate(-11.714875,150.92051)"
     d="M 175.41211 38.226562 L 160.37891 81.527344 L 164.89648 81.527344 L 168.66992 70.332031 L 185.55859 70.332031 L 189.51562 81.527344 L 193.9082 81.527344 L 178.75391 38.226562 L 175.41211 38.226562 z "
     style="stroke-width:1.03311;fill:#5d5d5d;fill-opacity:1"
     id="path468_5_" /><path
     style="stroke-width:1.03311;fill:#5d5d5d;fill-opacity:1"
     d="M 38.138717,232.44847 V 211.97223 H 16.98373 v 20.47624 H 12.655 v -43.30073 h 4.32873 v 18.74371 h 21.15602 v -18.74371 h 4.329763 v 43.30073 z"
     fill="#5d5d5d"
     id="path477_8_" /><path
     style="stroke-width:1.03311;fill:#5d5d5d;fill-opacity:1"
     d="m 51.472031,232.44847 v -43.30073 h 24.682024 v 4.14484 H 55.802827 v 14.72284 h 13.732094 v 4.08182 H 55.802827 v 16.20639 h 21.711834 v 4.14484 z"
     fill="#5d5d5d"
     id="path479_2_" /><path
     style="stroke-width:1.03311;fill:#5d5d5d;fill-opacity:1"
     d="M 82.785586,189.14774 H 97.13548 c 4.66036,0 8.0221,1.09303 10.08522,3.27702 2.10238,2.14681 3.15408,4.82669 3.15408,8.0438 0,2.14473 -0.61883,4.01983 -1.85443,5.62838 -1.19737,1.56826 -2.84622,2.74187 -4.94963,3.52497 2.47327,0.61986 4.47337,1.8565 5.99927,3.71196 1.56723,1.81517 2.35032,4.1438 2.35032,6.99002 0,3.42373 -1.09199,6.3092 -3.27805,8.66056 -2.14474,2.31003 -5.65008,3.46505 -10.516028,3.46505 H 82.785586 Z m 13.299222,18.9276 c 3.340043,0 5.876332,-0.67978 7.607822,-2.04039 1.77488,-1.40296 2.66026,-3.29872 2.66026,-5.6914 0,-4.86595 -2.9485,-7.29892 -8.84549,-7.29892 H 87.115349 v 15.03071 z m 2.783197,20.47624 c 3.257395,0 5.566395,-0.74178 6.928035,-2.22842 1.40193,-1.48458 2.10341,-3.35864 2.10341,-5.62838 0,-5.89699 -3.69027,-8.84549 -11.07287,-8.84549 h -9.711231 v 16.70125 h 11.752656 z"
     fill="#5d5d5d"
     id="path481_2_" /><path
     style="stroke-width:1.03311;fill:#5d5d5d;fill-opacity:1"
     d="m 120.31743,232.44847 v -43.30073 h 24.68099 v 4.14484 h -20.35123 v 14.72284 h 13.7321 v 4.08182 h -13.7321 v 16.20639 h 20.35123 v 4.14484 z"
     fill="#5d5d5d"
     id="path483_2_" /><path
     style="stroke-width:1.03311;fill:#5d5d5d;fill-opacity:1"
     d="m 188.72892,232.44847 v -43.30073 h 15.89543 c 4.70168,0 8.10371,1.15502 10.20712,3.46505 2.10341,2.26664 3.15512,5.0705 3.15512,8.41158 0,2.92886 -0.86678,5.50544 -2.59827,7.73283 -1.73149,2.18502 -4.43308,3.56629 -8.10372,4.14483 l 9.58726,19.54644 h -4.76263 l -9.27836,-19.36255 h -9.77219 v 19.36255 z m 4.32976,-23.25944 h 11.69067 c 3.13342,0 5.42176,-0.76346 6.86605,-2.28833 1.48561,-1.56826 2.22738,-3.46505 2.22738,-5.69037 0,-2.10341 -0.72214,-3.98161 -2.16539,-5.63045 -1.40193,-1.69017 -3.71093,-2.53525 -6.927,-2.53525 h -11.69067 v 16.1444 z"
     fill="#5d5d5d"
     id="path487_2_" /><path
     style="stroke-width:1.03311;fill:#5d5d5d;fill-opacity:1"
     d="m 241.55492,233.19127 c -3.0921,0 -5.83397,-0.61986 -8.22665,-1.8565 -2.35033,-1.27692 -4.22645,-2.98878 -5.62942,-5.13248 -1.35957,-2.14474 -2.39165,-4.51676 -3.0921,-7.114 -0.66015,-2.59827 -0.98971,-5.36184 -0.98971,-8.28864 0,-4.1252 0.59817,-7.81547 1.79347,-11.0739 1.23664,-3.29872 3.23674,-6.0003 6.00031,-8.10165 2.76356,-2.1468 6.14493,-3.2171 10.1441,-3.2171 3.54667,0 6.31023,0.63846 8.28864,1.91539 1.98047,1.23869 3.63035,2.92886 4.94963,5.0736 l -3.83491,2.22532 c -1.15501,-1.64988 -2.45363,-2.9485 -3.89689,-3.89689 -1.40193,-0.9484 -3.23673,-1.42156 -5.50647,-1.42156 -2.35032,0 -4.43204,0.55788 -6.24721,1.66847 -1.81518,1.0734 -3.21814,2.53835 -4.20683,4.39381 -0.98972,1.81311 -1.73149,3.77189 -2.22635,5.87633 -0.49589,2.10341 -0.7428,4.28844 -0.7428,6.55715 0,3.33901 0.4339,6.37015 1.29861,9.0924 0.90604,2.67988 2.39269,4.9269 4.45374,6.74207 2.10238,1.77385 4.65932,2.66026 7.66981,2.66026 3.13342,0 5.62838,-0.97009 7.48488,-2.90717 1.85649,-1.93708 2.78526,-4.55808 2.78526,-7.85577 v -2.59827 h -7.98077 v -3.83387 h 12.55745 v 4.76367 c 0,5.15315 -1.40193,9.17401 -4.20683,12.06052 -2.76253,2.84415 -6.3092,4.26881 -10.63896,4.26881 z"
     fill="#5d5d5d"
     id="path489_2_" /><path
     style="stroke-width:1.03311;fill:#5d5d5d;fill-opacity:1"
     d="m 265.96007,232.44847 v -43.30073 h 24.67996 v 4.14484 H 270.2919 v 14.72284 h 13.73209 v 4.08182 H 270.2919 v 16.20639 h 21.70977 v 4.14484 z"
     fill="#5d5d5d"
     id="path491_2_" /><path
     style="stroke-width:1.03311;fill:#5d5d5d;fill-opacity:1"
     d="m 329.36924,232.44847 h -4.39381 l -20.16424,-32.41382 c -1.03001,-1.73046 -1.60855,-2.70055 -1.73045,-2.90717 v 2.90717 32.41382 h -4.33183 v -43.30073 h 4.39071 l 20.10432,32.78367 c 0.66015,1.0734 1.25833,2.08172 1.79348,3.03011 v -3.03011 -32.78367 h 4.33079 v 43.30073 z"
     fill="#5d5d5d"
     id="path493_2_" /><path
     style="stroke-width:1.03311;fill:#5d5d5d;fill-opacity:1"
     d="m 353.70828,193.29258 v 39.15589 h -4.32873 v -39.15589 h -11.87663 v -4.14484 h 28.14604 v 4.14484 z"
     fill="#5d5d5d"
     id="path495_2_" /><path
     style="stroke-width:1.03311;fill:#5d5d5d;fill-opacity:1"
     d="m 372.73712,232.44847 v -43.30073 h 4.3308 v 43.30073 z"
     fill="#5d5d5d"
     id="path497_2_" /><path
     style="stroke-width:1.03311;fill:#5d5d5d;fill-opacity:1"
     d="m 388.3908,232.44847 v -43.30073 h 24.67996 v 4.14484 h -20.35123 v 14.72284 h 13.73416 v 4.08182 h -13.73416 v 16.20639 h 21.7139 v 4.14484 z"
     fill="#5d5d5d"
     id="path499_2_" /><path
     style="stroke-width:1.03311;fill:#5d5d5d;fill-opacity:1"
     d="m 421.56086,232.44847 v -43.30073 h 15.89852 c 4.70065,0 8.10268,1.15502 10.20609,3.46505 2.10341,2.26664 3.15512,5.0705 3.15512,8.41158 0,2.92886 -0.86575,5.50544 -2.59827,7.73283 -1.73356,2.18502 -4.43411,3.56629 -8.10268,4.14483 l 9.58622,19.54644 h -4.76263 l -9.27733,-19.36255 h -9.77425 v 19.36255 z m 4.32976,-23.25944 h 11.68964 c 3.13548,0 5.42382,-0.76346 6.86604,-2.28833 1.48458,-1.56826 2.22635,-3.46505 2.22635,-5.69037 0,-2.10341 -0.72007,-3.98161 -2.16436,-5.63045 -1.40193,-1.69017 -3.71196,-2.53525 -6.92907,-2.53525 h -11.68963 v 16.1444 z"
     fill="#5d5d5d"
     id="path501_2_" /><path
     style="stroke-width:1.03311;fill:#5d5d5d;fill-opacity:1"
     d="m 458.84579,232.44847 v -43.30073 h 4.32769 v 43.30073 z"
     fill="#5d5d5d"
     id="path503_2_" /></g></svg>
