<?xml version="1.0" encoding="UTF-8" standalone="no"?>
<svg
   xmlns:dc="http://purl.org/dc/elements/1.1/"
   xmlns:cc="http://creativecommons.org/ns#"
   xmlns:rdf="http://www.w3.org/1999/02/22-rdf-syntax-ns#"
   xmlns:svg="http://www.w3.org/2000/svg"
   xmlns="http://www.w3.org/2000/svg"
   xmlns:sodipodi="http://sodipodi.sourceforge.net/DTD/sodipodi-0.dtd"
   xmlns:inkscape="http://www.inkscape.org/namespaces/inkscape"
   inkscape:version="1.0 (4035a4f, 2020-05-01)"
   sodipodi:docname="logo.svg"
   xml:space="preserve"
   enable-background="new 0 0 487.113 126.647"
   viewBox="0 0 499.99999 140"
   height="140"
   width="500"
   y="0px"
   x="0px"
   id="Capa_1"
   version="1.1"><metadata
   id="metadata52"><rdf:RDF><cc:Work
       rdf:about=""><dc:format>image/svg+xml</dc:format><dc:type
         rdf:resource="http://purl.org/dc/dcmitype/StillImage" /></cc:Work></rdf:RDF></metadata><defs
   id="defs50" /><sodipodi:namedview
   inkscape:current-layer="g92"
   inkscape:window-maximized="1"
   inkscape:window-y="0"
   inkscape:window-x="0"
   inkscape:cy="118.61224"
   inkscape:cx="220.63846"
   inkscape:zoom="1.5773271"
   showguides="false"
   showgrid="false"
   id="namedview48"
   inkscape:window-height="743"
   inkscape:window-width="1366"
   inkscape:pageshadow="2"
   inkscape:pageopacity="0"
   guidetolerance="10"
   gridtolerance="10"
   objecttolerance="10"
   borderopacity="1"
   bordercolor="#666666"
   pagecolor="#ffffff" />

<g
   inkscape:groupmode="layer"
   inkscape:label="Capa 1"
   transform="translate(12.580115,-153.89098)"
   id="layer1_1_">
	
	
	
	
	
	
	
	
	
	
	
	
	
	
	
	
	
	
	
	
	
	
	
	
	
	
	
	
	
	
	
	
	
	
	
	
	
	
</g>
<rect
   fill="#FFFFFF"
   width="500"
   height="140"
   id="rect2"
   style="opacity:0;fill:#ffffff;stroke-width:1.06521"
   x="0"
   y="0" /><g
   transform="translate(11.714875,-150.92051)"
   id="g92"><path
     transform="translate(-11.714875,150.92051)"
     d="M 175.41211 38.226562 L 160.37891 81.527344 L 164.89648 81.527344 L 168.66992 70.332031 L 185.55859 70.332031 L 189.51562 81.527344 L 193.9082 81.527344 L 178.75391 38.226562 L 175.41211 38.226562 z "
     style="stroke-width:1.03311;fill:#5d5d5d;fill-opacity:1"
     id="path468_5_" /><path
     style="stroke-width:1.03311;fill:#5d5d5d;fill-opacity:1"
     d="M 38.138717,232.44847 V 211.97223 H 16.98373 v 20.47624 H 12.655 v -43.30073 h 4.32873 v 18.74371 h 21.15602 v -18.74371 h 4.329763 v 43.30073 z"
     fill="#5d5d5d"
     id="path477_8_" /><path
     style="stroke-width:1.03311;fill:#5d5d5d;fill-opacity:1"
     d="m 51.472031,232.44847 v -43.30073 h 24.682024 v 4.14484 H 55.802827 v 14.72284 h 13.732094 v 4.08182 H 55.802827 v 16.20639 h 21.711834 v 4.14484 z"
     fill="#5d5d5d"
     id="path479_2_" /><path
     style="stroke-width:1.03311;fill:#5d5d5d;fill-opacity:1"
     d="M 82.785586,189.14774 H 97.13548 c 4.66036,0 8.0221,1.09303 10.08522,3.27702 2.10238,2.14681 3.15408,4.82669 3.15408,8.0438 0,2.14473 -0.61883,4.01983 -1.85443,5.62838 -1.19737,1.56826 -2.84622,2.74187 -4.94963,3.52497 2.47327,0.61986 4.47337,1.8565 5.99927,3.71196 1.56723,1.81517 2.35032,4.1438 2.35032,6.99002 0,3.42373 -1.09199,6.3092 -3.27805,8.66056 -2.14474,2.31003 -5.65008,3.46505 -10.516028,3.46505 H 82.785586 Z m 13.299222,18.9276 c 3.340043,0 5.876332,-0.67978 7.607822,-2.04039 1.77488,-1.40296 2.66026,-3.29872 2.66026,-5.6914 0,-4.86595 -2.9485,-7.29892 -8.84549,-7.29892 H 87.115349 v 15.03071 z m 2.783197,20.47624 c 3.257395,0 5.566395,-0.74178 6.928035,-2.22842 1.40193,-1.48458 2.10341,-3.35864 2.10341,-5.62838 0,-5.89699 -3.69027,-8.84549 -11.07287,-8.84549 h -9.711231 v 16.70125 h 11.752656 z"
     fill="#5d5d5d"
     id="path481_2_" /><path
     style="stroke-width:1.03311;fill:#5d5d5d;fill-opacity:1"
     d="m 120.31743,232.44847 v -43.30073 h 24.68099 v 4.14484 h -20.35123 v 14.72284 h 13.7321 v 4.08182 h -13.7321 v 16.20639 h 20.35123 v 4.14484 z"
     fill="#5d5d5d"
     id="path483_2_" /><path
     style="stroke-width:1.03311;fill:#5d5d5d;fill-opacity:1"
     d="m 188.72892,232.44847 v -43.30073 h 15.89543 c 4.70168,0 8.10371,1.15502 10.20712,3.46505 2.10341,2.26664 3.15512,5.0705 3.15512,8.41158 0,2.92886 -0.86678,5.50544 -2.59827,7.73283 -1.73149,2.18502 -4.43308,3.56629 -8.10372,4.14483 l 9.58726,19.54644 h -4.76263 l -9.27836,-19.36255 h -9.77219 v 19.36255 z m 4.32976,-23.25944 h 11.69067 c 3.13342,0 5.42176,-0.76346 6.86605,-2.28833 1.48561,-1.56826 2.22738,-3.46505 2.22738,-5.69037 0,-2.10341 -0.72214,-3.98161 -2.16539,-5.63045 -1.40193,-1.69017 -3.71093,-2.53525 -6.927,-2.53525 h -11.69067 v 16.1444 z"
     fill="#5d5d5d"
     id="path487_2_" /><path
     style="stroke-width:1.03311;fill:#5d5d5d;fill-opacity:1"
     d="m 241.55492,233.19127 c -3.0921,0 -5.83397,-0.61986 -8.22665,-1.8565 -2.35033,-1.27692 -4.22645,-2.98878 -5.62942,-5.13248 -1.35957,-2.14474 -2.39165,-4.51676 -3.0921,-7.114 -0.66015,-2.59827 -0.98971,-5.36184 -0.98971,-8.28864 0,-4.1252 0.59817,-7.81547 1.79347,-11.0739 1.23664,-3.29872 3.23674,-6.0003 6.00031,-8.10165 2.76356,-2.1468 6.14493,-3.2171 10.1441,-3.2171 3.54667,0 6.31023,0.63846 8.28864,1.91539 1.98047,1.23869 3.63035,2.92886 4.94963,5.0736 l -3.83491,2.22532 c -1.15501,-1.64988 -2.45363,-2.9485 -3.89689,-3.89689 -1.40193,-0.9484 -3.23673,-1.42156 -5.50647,-1.42156 -2.35032,0 -4.43204,0.55788 -6.24721,1.66847 -1.81518,1.0734 -3.21814,2.53835 -4.20683,4.39381 -0.98972,1.81311 -1.73149,3.77189 -2.22635,5.87633 -0.49589,2.10341 -0.7428,4.28844 -0.7428,6.55715 0,3.33901 0.4339,6.37015 1.29861,9.0924 0.90604,2.67988 2.39269,4.9269 4.45374,6.74207 2.10238,1.77385 4.65932,2.66026 7.66981,2.66026 3.13342,0 5.62838,-0.97009 7.48488,-2.90717 1.85649,-1.93708 2.78526,-4.55808 2.78526,-7.85577 v -2.59827 h -7.98077 v -3.83387 h 12.55745 v 4.76367 c 0,5.15315 -1.40193,9.17401 -4.20683,12.06052 -2.76253,2.84415 -6.3092,4.26881 -10.63896,4.26881 z"
     fill="#5d5d5d"
     id="path489_2_" /><path
     style="stroke-width:1.03311;fill:#5d5d5d;fill-opacity:1"
     d="m 265.96007,232.44847 v -43.30073 h 24.67996 v 4.14484 H 270.2919 v 14.72284 h 13.73209 v 4.08182 H 270.2919 v 16.20639 h 21.70977 v 4.14484 z"
     fill="#5d5d5d"
     id="path491_2_" /><path
     style="stroke-width:1.03311;fill:#5d5d5d;fill-opacity:1"
     d="m 329.36924,232.44847 h -4.39381 l -20.16424,-32.41382 c -1.03001,-1.73046 -1.60855,-2.70055 -1.73045,-2.90717 v 2.90717 32.41382 h -4.33183 v -43.30073 h 4.39071 l 20.10432,32.78367 c 0.66015,1.0734 1.25833,2.08172 1.79348,3.03011 v -3.03011 -32.78367 h 4.33079 v 43.30073 z"
     fill="#5d5d5d"
     id="path493_2_" /><path
     style="stroke-width:1.03311;fill:#5d5d5d;fill-opacity:1"
     d="m 353.70828,193.29258 v 39.15589 h -4.32873 v -39.15589 h -11.87663 v -4.14484 h 28.14604 v 4.14484 z"
     fill="#5d5d5d"
     id="path495_2_" /><path
     style="stroke-width:1.03311;fill:#5d5d5d;fill-opacity:1"
     d="m 372.73712,232.44847 v -43.30073 h 4.3308 v 43.30073 z"
     fill="#5d5d5d"
     id="path497_2_" /><path
     style="stroke-width:1.03311;fill:#5d5d5d;fill-opacity:1"
     d="m 388.3908,232.44847 v -43.30073 h 24.67996 v 4.14484 h -20.35123 v 14.72284 h 13.73416 v 4.08182 h -13.73416 v 16.20639 h 21.7139 v 4.14484 z"
     fill="#5d5d5d"
     id="path499_2_" /><path
     style="stroke-width:1.03311;fill:#5d5d5d;fill-opacity:1"
     d="m 421.56086,232.44847 v -43.30073 h 15.89852 c 4.70065,0 8.10268,1.15502 10.20609,3.46505 2.10341,2.26664 3.15512,5.0705 3.15512,8.41158 0,2.92886 -0.86575,5.50544 -2.59827,7.73283 -1.73356,2.18502 -4.43411,3.56629 -8.10268,4.14483 l 9.58622,19.54644 h -4.76263 l -9.27733,-19.36255 h -9.77425 v 19.36255 z m 4.32976,-23.25944 h 11.68964 c 3.13548,0 5.42382,-0.76346 6.86604,-2.28833 1.48458,-1.56826 2.22635,-3.46505 2.22635,-5.69037 0,-2.10341 -0.72007,-3.98161 -2.16436,-5.63045 -1.40193,-1.69017 -3.71196,-2.53525 -6.92907,-2.53525 h -11.68963 v 16.1444 z"
     fill="#5d5d5d"
     id="path501_2_" /><path
     style="stroke-width:1.03311;fill:#5d5d5d;fill-opacity:1"
     d="m 458.84579,232.44847 v -43.30073 h 4.32769 v 43.30073 z"
     fill="#5d5d5d"
     id="path503_2_" /><path
     style="stroke-width:1.03311;fill:#5d5d5d;fill-opacity:1"
     d="m 153.29326,253.43402 c -1.04964,0 -1.997,-0.25724 -2.84105,-0.76863 -0.82856,-0.52275 -1.46392,-1.25729 -1.90506,-2.19639 l 2.15507,-1.03518 c 0.53928,1.07547 1.40399,1.61372 2.59104,1.61372 1.61681,0 2.42677,-1.02794 2.42677,-3.08486 v -9.28869 h 2.46604 v 9.55729 c 0,0.78723 -0.10332,1.49078 -0.31097,2.11271 -0.19319,0.62194 -0.4494,1.12919 -0.76657,1.51558 -0.3182,0.37191 -0.69735,0.68185 -1.13952,0.93186 -0.44114,0.23555 -0.88537,0.40085 -1.32651,0.49693 -0.42977,0.095 -0.88021,0.14566 -1.34924,0.14566 z"
     fill="#5d5d5d"
     id="path506_2_" /><path
     style="stroke-width:1.03311;fill:#5d5d5d;fill-opacity:1"
     d="m 169.82921,253.43402 c -0.89984,0 -1.71393,-0.1467 -2.4464,-0.437 -0.73248,-0.29134 -1.33891,-0.67772 -1.82344,-1.16018 -0.47007,-0.49693 -0.87195,-1.07134 -1.20357,-1.7222 -0.3182,-0.64879 -0.54652,-1.31825 -0.68392,-2.0094 -0.13947,-0.70664 -0.20766,-1.43189 -0.20766,-2.17882 0,-0.74694 0.0682,-1.46392 0.20766,-2.153 0.13637,-0.70665 0.36572,-1.38334 0.68392,-2.03213 0.33162,-0.65086 0.7335,-1.217 1.20357,-1.7005 0.48349,-0.49899 1.08993,-0.89261 1.82344,-1.18084 0.73247,-0.29134 1.5476,-0.43494 2.4464,-0.43494 1.11886,0 2.09928,0.21798 2.94333,0.66325 0.85645,0.42771 1.51971,1.01555 1.9908,1.76042 0.4835,0.73144 0.84199,1.52694 1.07754,2.38752 0.23555,0.85438 0.35229,1.75319 0.35229,2.69125 0,0.94116 -0.11778,1.83997 -0.35229,2.69745 -0.23555,0.85438 -0.59404,1.65917 -1.07754,2.40301 -0.47109,0.73248 -1.13435,1.32135 -1.9908,1.76352 -0.84405,0.42564 -1.8255,0.64259 -2.94333,0.64259 z m 0,-2.38751 c 0.66429,0 1.25006,-0.156 1.76249,-0.47523 0.51139,-0.31717 0.905,-0.73248 1.18187,-1.24387 0.29134,-0.52585 0.50416,-1.07133 0.6426,-1.63748 0.13844,-0.58164 0.20662,-1.16741 0.20662,-1.76351 0,-0.6333 -0.0682,-1.23354 -0.20662,-1.80278 -0.13844,-0.57854 -0.35126,-1.12609 -0.6426,-1.63748 -0.27687,-0.51139 -0.66945,-0.9174 -1.18187,-1.22217 -0.49796,-0.30477 -1.08477,-0.45663 -1.76249,-0.45663 -0.88537,0 -1.62405,0.28307 -2.21808,0.85335 -0.59404,0.54961 -1.00832,1.19324 -1.24387,1.92571 -0.22108,0.73248 -0.33163,1.51351 -0.33163,2.34103 0,0.62296 0.0682,1.22527 0.20662,1.80381 0.13844,0.58164 0.34506,1.12815 0.62297,1.63954 0.2903,0.50933 0.68392,0.91947 1.18188,1.22217 0.51139,0.3027 1.10646,0.45354 1.78211,0.45354 z"
     fill="#5d5d5d"
     id="path508_2_" /><path
     style="stroke-width:1.03311;fill:#5d5d5d;fill-opacity:1"
     d="m 184.5035,253.18401 v -5.68107 l -5.22237,-8.82999 h 2.81833 l 3.64791,6.28234 3.64894,-6.28234 h 2.81936 l -5.24613,8.82999 v 5.68107 z"
     fill="#5d5d5d"
     id="path510_2_" /><path
     style="stroke-width:1.03311;fill:#5d5d5d;fill-opacity:1"
     d="m 196.45348,253.18401 v -14.51106 h 9.45089 v 2.34413 h -6.96419 v 3.50121 h 4.28947 v 2.34412 h -4.28947 v 3.98161 h 7.41979 v 2.34206 h -9.90649 z"
     fill="#5d5d5d"
     id="path512_2_" /><path
     style="stroke-width:1.03311;fill:#5d5d5d;fill-opacity:1"
     d="m 211.55445,253.18401 v -14.51106 h 6.42594 c 1.6726,0 2.88134,0.41531 3.62931,1.24387 0.75934,0.83062 1.13952,1.88749 1.13952,3.16958 0,0.89984 -0.25621,1.74389 -0.7676,2.53112 -0.51035,0.78723 -1.25109,1.32548 -2.21705,1.61578 l 2.902,5.94968 h -2.79869 l -2.79869,-5.68107 h -3.02598 v 5.68107 h -2.48876 z m 2.48772,-8.04482 h 3.98058 c 0.7459,0 1.29138,-0.19216 1.63748,-0.57854 0.34505,-0.38742 0.51758,-0.87918 0.51758,-1.47425 0,-0.57958 -0.16633,-1.06411 -0.49692,-1.45049 -0.33266,-0.40085 -0.88434,-0.60024 -1.65814,-0.60024 h -3.98058 z"
     fill="#5d5d5d"
     id="path514_2_" /><path
     style="stroke-width:1.03311;fill:#5d5d5d;fill-opacity:1"
     d="m 228.25673,253.18401 v -14.51106 h 2.48876 v 14.51106 z"
     fill="#5d5d5d"
     id="path516_2_" /><path
     style="stroke-width:1.03311;fill:#5d5d5d;fill-opacity:1"
     d="m 259.46491,253.43402 c -0.87091,0 -1.65814,-0.1467 -2.36272,-0.437 -0.70562,-0.29134 -1.28726,-0.67669 -1.74286,-1.16018 -0.44217,-0.48247 -0.81409,-1.05894 -1.11989,-1.7222 -0.30167,-0.66325 -0.52275,-1.33994 -0.66222,-2.03212 -0.12501,-0.69115 -0.18596,-1.40917 -0.18596,-2.1561 0,-0.88331 0.10951,-1.74493 0.33266,-2.59104 0.22108,-0.84302 0.55788,-1.63748 1.01555,-2.38235 0.45456,-0.76037 1.09096,-1.36887 1.90505,-1.82448 0.81719,-0.46799 1.75629,-0.70354 2.82039,-0.70354 1.28415,0 2.36272,0.3027 3.23467,0.91017 0.87091,0.5961 1.47631,1.32031 1.82447,2.17573 l -2.24082,1.01761 c -0.38638,-0.59301 -0.79239,-1.03001 -1.22217,-1.30585 -0.41427,-0.27584 -0.94736,-0.41531 -1.59615,-0.41531 -0.6364,0 -1.19531,0.15806 -1.67777,0.47833 -0.47316,0.3027 -0.83682,0.71801 -1.10026,1.24386 -0.24795,0.51242 -0.43597,1.05687 -0.55891,1.63851 -0.11261,0.56615 -0.16634,1.15502 -0.16634,1.76042 0,1.35648 0.29547,2.54558 0.89055,3.5663 0.60953,1.02278 1.48044,1.53417 2.61273,1.53417 1.10543,0 2.03006,-0.62297 2.777,-1.8658 l 2.30073,0.87194 c -1.00728,2.26561 -2.69951,3.39893 -5.07773,3.39893 z"
     fill="#5d5d5d"
     id="path520_2_" /><path
     style="stroke-width:1.03311;fill:#5d5d5d;fill-opacity:1"
     d="m 275.30248,253.43402 c -0.89777,0 -1.71599,-0.1467 -2.44744,-0.437 -0.73247,-0.29134 -1.33994,-0.67669 -1.82447,-1.16018 -0.46903,-0.49693 -0.86988,-1.07134 -1.20047,-1.7222 -0.3182,-0.64879 -0.54858,-1.31825 -0.68599,-2.0094 -0.13947,-0.70664 -0.20765,-1.43189 -0.20765,-2.17779 0,-0.74694 0.0682,-1.46495 0.20765,-2.15403 0.13741,-0.70665 0.36779,-1.38334 0.68599,-2.03213 0.33059,-0.65086 0.73144,-1.217 1.20047,-1.7005 0.48453,-0.49899 1.092,-0.89261 1.82447,-1.18084 0.73145,-0.29134 1.54967,-0.43494 2.44744,-0.43494 1.11783,0 2.09825,0.21798 2.9423,0.66325 0.85645,0.42771 1.5197,1.01555 1.9908,1.76042 0.48246,0.73144 0.84095,1.52694 1.0765,2.38752 0.23452,0.85438 0.35229,1.75319 0.35229,2.69125 0,0.94116 -0.11777,1.83997 -0.35229,2.69642 -0.23555,0.85438 -0.59404,1.65917 -1.0765,2.40404 -0.4711,0.73248 -1.13435,1.32032 -1.9908,1.76249 -0.84405,0.42667 -1.82447,0.64362 -2.9423,0.64362 z m 0,-2.38751 c 0.66326,0 1.24903,-0.156 1.76145,-0.47523 0.51139,-0.31717 0.90501,-0.73144 1.18188,-1.24387 0.2903,-0.52585 0.50313,-1.07133 0.64363,-1.63748 0.1374,-0.58164 0.20765,-1.16741 0.20765,-1.76248 0,-0.63433 -0.0702,-1.23457 -0.20765,-1.80381 -0.1405,-0.57854 -0.35333,-1.12609 -0.64363,-1.63748 -0.27687,-0.51139 -0.66945,-0.9174 -1.18188,-1.22217 -0.49692,-0.30477 -1.08373,-0.45663 -1.76145,-0.45663 -0.88641,0 -1.62508,0.28307 -2.21912,0.85335 -0.59507,0.54961 -1.00935,1.19324 -1.24283,1.92571 -0.22315,0.73248 -0.33266,1.51351 -0.33266,2.34206 0,0.62193 0.0682,1.22527 0.20765,1.80381 0.13741,0.58164 0.34506,1.12816 0.6209,1.63955 0.29237,0.50932 0.68599,0.91946 1.18188,1.22217 0.51139,0.30166 1.10543,0.4525 1.78418,0.4525 z"
     fill="#5d5d5d"
     id="path522_2_" /><path
     style="stroke-width:1.03311;fill:#5d5d5d;fill-opacity:1"
     d="m 298.34289,253.18401 h -2.25734 l -6.0127,-9.16058 c -0.19319,-0.29341 -0.39361,-0.65086 -0.6023,-1.08063 0.0413,0.33162 0.0641,0.69115 0.0641,1.08063 v 9.16058 h -2.4681 v -14.51106 h 2.40405 l 5.86599,9.01698 c 0.14051,0.20663 0.34093,0.57441 0.60231,1.09923 -0.0413,-0.37398 -0.061,-0.7397 -0.061,-1.09923 v -9.01698 h 2.46397 v 14.51106 z"
     fill="#5d5d5d"
     id="path524_2_" /><path
     style="stroke-width:1.03311;fill:#5d5d5d;fill-opacity:1"
     d="m 309.95401,241.05737 v 12.12664 h -2.48876 v -12.12664 h -4.12417 v -2.38442 h 10.73711 v 2.38442 z"
     fill="#5d5d5d"
     id="path526_2_" /><path
     style="stroke-width:1.03311;fill:#5d5d5d;fill-opacity:1"
     d="m 319.05158,253.18401 v -14.51106 h 9.45192 v 2.34413 h -6.96523 v 3.50121 h 4.29154 v 2.34412 h -4.29154 v 3.98161 h 7.42083 v 2.34206 h -9.90752 z"
     fill="#5d5d5d"
     id="path528_2_" /><path
     style="stroke-width:1.03311;fill:#5d5d5d;fill-opacity:1"
     d="m 347.35775,253.18401 h -2.48773 v -7.7101 c 0,-0.63639 0.0258,-1.21803 0.0837,-1.74389 -0.16736,0.499 -0.38741,1.09303 -0.66325,1.78419 l -3.52601,7.91981 -3.52497,-7.96114 c -0.24691,-0.55478 -0.47419,-1.13332 -0.68288,-1.74389 0.0547,0.52585 0.0847,1.1075 0.0847,1.74389 v 7.7101 h -2.48772 v -14.51106 h 2.50735 l 3.73263,8.52006 c 0.15083,0.38741 0.281,0.74693 0.39361,1.07753 0.11055,-0.33163 0.23968,-0.69115 0.39362,-1.07753 l 3.75122,-8.52006 h 2.42574 z"
     fill="#5d5d5d"
     id="path530_2_" /><path
     style="stroke-width:1.03311;fill:#5d5d5d;fill-opacity:1"
     d="m 353.26094,253.18401 v -14.51106 h 6.03233 c 1.67364,0 2.9051,0.43391 3.69233,1.30689 0.78723,0.86884 1.18188,1.93294 1.18188,3.19127 0,1.18808 -0.41531,2.23978 -1.24593,3.14995 -0.81409,0.91327 -2.02283,1.36887 -3.62828,1.36887 h -3.5446 v 5.49408 z m 6.15733,-7.8568 c 0.73351,0 1.27899,-0.21385 1.63852,-0.64156 0.36055,-0.43081 0.53825,-0.93393 0.53825,-1.51557 0,-0.55271 -0.17357,-1.04241 -0.51863,-1.47218 -0.32956,-0.44217 -0.8833,-0.66326 -1.65814,-0.66326 h -3.6696 v 4.29154 h 3.6696 z"
     fill="#5d5d5d"
     id="path532_2_" /><path
     style="stroke-width:1.03311;fill:#5d5d5d;fill-opacity:1"
     d="m 374.49134,253.43402 c -0.8988,0 -1.71186,-0.1467 -2.4464,-0.437 -0.73144,-0.29134 -1.34098,-0.67669 -1.82447,-1.16018 -0.47007,-0.49693 -0.86988,-1.07134 -1.20254,-1.7222 -0.3182,-0.64879 -0.54548,-1.31825 -0.68495,-2.0094 -0.13637,-0.70664 -0.20456,-1.43189 -0.20456,-2.17779 0,-0.74694 0.0682,-1.46495 0.20456,-2.15403 0.13947,-0.70665 0.36572,-1.38334 0.68495,-2.03213 0.33266,-0.65086 0.73247,-1.217 1.20254,-1.7005 0.48349,-0.49899 1.09303,-0.89261 1.82447,-1.18084 0.73351,-0.29134 1.5476,-0.43494 2.4464,-0.43494 1.1199,0 2.10135,0.21798 2.9423,0.66325 0.85852,0.42771 1.52177,1.01555 1.99184,1.76042 0.48452,0.73144 0.84405,1.52694 1.07856,2.38752 0.23555,0.85438 0.35229,1.75319 0.35229,2.69125 0,0.94116 -0.11777,1.83997 -0.35229,2.69642 -0.23451,0.85438 -0.59404,1.65917 -1.07856,2.40404 -0.4711,0.73248 -1.13332,1.32032 -1.99184,1.76249 -0.83992,0.42667 -1.82137,0.64362 -2.9423,0.64362 z m 0,-2.38751 c 0.66326,0 1.25007,-0.156 1.76146,-0.47523 0.51139,-0.31717 0.905,-0.73144 1.18084,-1.24387 0.29237,-0.52585 0.50726,-1.07133 0.64363,-1.63748 0.13947,-0.58164 0.20765,-1.16741 0.20765,-1.76248 0,-0.63433 -0.0682,-1.23457 -0.20765,-1.80381 -0.13637,-0.57854 -0.35126,-1.12609 -0.64363,-1.63748 -0.27584,-0.51139 -0.66945,-0.9174 -1.18084,-1.22217 -0.49693,-0.30477 -1.08374,-0.45663 -1.76146,-0.45663 -0.88227,0 -1.62508,0.28307 -2.21912,0.85335 -0.59403,0.54961 -1.00728,1.19324 -1.24179,1.92571 -0.22006,0.73248 -0.3337,1.51351 -0.3337,2.34206 0,0.62193 0.0713,1.22527 0.20869,1.80381 0.13947,0.58164 0.34506,1.12816 0.62193,1.63955 0.29031,0.50932 0.68392,0.91946 1.18188,1.22217 0.51139,0.30166 1.10543,0.4525 1.78211,0.4525 z"
     fill="#5d5d5d"
     id="path534_2_" /><path
     style="stroke-width:1.03311;fill:#5d5d5d;fill-opacity:1"
     d="m 386.25846,253.18401 v -14.51106 h 6.42698 c 1.67054,0 2.88238,0.41531 3.62725,1.24387 0.7583,0.83062 1.14055,1.88749 1.14055,3.16958 0,0.89984 -0.25724,1.74389 -0.76863,2.53112 -0.51139,0.78723 -1.24903,1.32548 -2.21809,1.61578 l 2.90304,5.94968 h -2.7987 l -2.79766,-5.68107 h -3.02701 v 5.68107 h -2.48773 z m 2.48773,-8.04482 h 3.98057 c 0.74694,0 1.29139,-0.19216 1.63645,-0.57854 0.34506,-0.38742 0.51759,-0.87918 0.51759,-1.47425 0,-0.57958 -0.1653,-1.06411 -0.49486,-1.45049 -0.33266,-0.40085 -0.88641,-0.60024 -1.65918,-0.60024 h -3.98057 z"
     fill="#5d5d5d"
     id="path536_2_" /><path
     style="stroke-width:1.03311;fill:#5d5d5d;fill-opacity:1"
     d="m 412.11307,253.18401 -1.14056,-3.17164 h -5.74409 l -1.14055,3.17164 h -2.63133 l 5.41143,-14.51106 h 2.465 l 5.3887,14.51106 z m -1.92675,-5.41039 -1.59822,-4.35353 c -0.20766,-0.52585 -0.36676,-1.01554 -0.47627,-1.47218 -0.11054,0.40085 -0.2686,0.89364 -0.47729,1.47218 l -1.61579,4.35353 z"
     fill="#5d5d5d"
     id="path538_4_" /><path
     style="stroke-width:1.03311;fill:#5d5d5d;fill-opacity:1"
     d="m 430.61296,253.18401 h -2.26044 l -6.01063,-9.16058 c -0.19319,-0.29341 -0.39362,-0.65086 -0.60231,-1.08063 0.0413,0.33162 0.061,0.69115 0.061,1.08063 v 9.16058 h -2.465 v -14.51106 h 2.40404 l 5.866,9.01698 c 0.1405,0.20663 0.34093,0.57441 0.6023,1.09923 -0.0413,-0.37398 -0.062,-0.7397 -0.062,-1.09923 v -9.01698 h 2.46706 z"
     fill="#5d5d5d"
     id="path540_2_" /><path
     style="stroke-width:1.03311;fill:#5d5d5d;fill-opacity:1"
     d="m 436.54198,253.18401 v -14.51106 h 9.45295 v 2.34413 h -6.96522 v 3.50121 h 4.2905 v 2.34412 h -4.2905 v 3.98161 h 7.42083 v 2.34206 h -9.90856 z"
     fill="#5d5d5d"
     id="path542_2_" /><path
     style="stroke-width:1.03311;fill:#5d5d5d;fill-opacity:1"
     d="m 461.30355,253.18401 -1.13952,-3.17164 h -5.74409 l -1.14055,3.17164 h -2.6334 l 5.41143,-14.51106 h 2.46707 l 5.39076,14.51106 z m -1.92675,-5.41039 -1.59822,-4.35353 c -0.20765,-0.52585 -0.36778,-1.01554 -0.47626,-1.47218 -0.11054,0.40085 -0.26964,0.89364 -0.4773,1.47218 l -1.61681,4.35353 z"
     fill="#5d5d5d"
     id="path544_2_" /><path
     transform="translate(-11.714875,150.92051)"
     d="M 252.5957 87.751953 L 247.18555 102.26367 L 249.81641 102.26367 L 250.95703 99.089844 L 256.70117 99.089844 L 257.8418 102.26367 L 260.44922 102.26367 L 255.06055 87.751953 L 252.5957 87.751953 z "
     style="fill:#5d5d5d;stroke-width:1.03311;fill-opacity:1"
     id="polygon38" /><polygon
     style="fill:#5d5d5d;fill-opacity:1"
     transform="matrix(1.0331097,0,0,1.0331097,-0.41900337,-6.238101)"
     id="polygon42"
     points="223.806,232.936 226.801,232.936 223.72,235.638 221.347,235.638 "
     fill="#5d5d5d" /><polygon
     style="fill:#5d5d5d;fill-opacity:1"
     transform="matrix(1.0331097,0,0,1.0331097,-0.41900337,-6.238101)"
     id="polygon44"
     points="396.883,232.936 399.879,232.936 396.797,235.638 394.425,235.638 "
     fill="#5d5d5d" /></g></svg>
