<?xml version="1.0" encoding="UTF-8" standalone="no"?>
<svg
   xmlns:dc="http://purl.org/dc/elements/1.1/"
   xmlns:cc="http://creativecommons.org/ns#"
   xmlns:rdf="http://www.w3.org/1999/02/22-rdf-syntax-ns#"
   xmlns:svg="http://www.w3.org/2000/svg"
   xmlns="http://www.w3.org/2000/svg"
   xmlns:xlink="http://www.w3.org/1999/xlink"
   xmlns:sodipodi="http://sodipodi.sourceforge.net/DTD/sodipodi-0.dtd"
   xmlns:inkscape="http://www.inkscape.org/namespaces/inkscape"
   inkscape:export-ydpi="96"
   inkscape:export-xdpi="96"
   inkscape:export-filename="./favicon.png"
   sodipodi:docname="icono-instagram.svg"
   inkscape:version="1.0 (4035a4f, 2020-05-01)"
   id="svg8"
   version="1.1"
   viewBox="0 0 8.4666662 8.4666662"
   height="8.4666662mm"
   width="8.4666662mm">
  <defs
     id="defs2">
    <linearGradient
       inkscape:collect="always"
       id="linearGradient64">
      <stop
         style="stop-color:#565656;stop-opacity:1;"
         offset="0"
         id="stop60" />
      <stop
         style="stop-color:#757575;stop-opacity:1"
         offset="1"
         id="stop62" />
    </linearGradient>
    <linearGradient
       id="linearGradient892"
       inkscape:collect="always">
      <stop
         id="stop888"
         offset="0"
         style="stop-color:#363636;stop-opacity:1" />
      <stop
         id="stop890"
         offset="1"
         style="stop-color:#c9c9c9;stop-opacity:1" />
    </linearGradient>
    <linearGradient
       inkscape:collect="always"
       id="linearGradient28">
      <stop
         style="stop-color:#808080;stop-opacity:1"
         offset="0"
         id="stop24" />
      <stop
         style="stop-color:#1a1a1a;stop-opacity:1"
         offset="1"
         id="stop26" />
    </linearGradient>
    <linearGradient
       gradientUnits="userSpaceOnUse"
       y2="57.390835"
       x2="85.329559"
       y1="57.390835"
       x1="50.432499"
       id="linearGradient32-3"
       xlink:href="#linearGradient28"
       inkscape:collect="always"
       gradientTransform="matrix(3.7795276,0,0,3.7795276,-178.42254,-191.06632)" />
    <linearGradient
       gradientUnits="userSpaceOnUse"
       y2="57.390835"
       x2="85.329559"
       y1="57.390835"
       x1="50.432499"
       id="linearGradient32-35"
       xlink:href="#linearGradient892"
       inkscape:collect="always"
       gradientTransform="matrix(3.7795276,0,0,3.7795276,-178.42254,-191.06632)" />
    <clipPath
       clipPathUnits="userSpaceOnUse"
       id="clipPath893">
      <rect
         style="font-variation-settings:normal;opacity:1;vector-effect:none;fill:url(#linearGradient897);fill-opacity:1;fill-rule:evenodd;stroke:none;stroke-width:0.0703392;stroke-linecap:butt;stroke-linejoin:miter;stroke-miterlimit:4;stroke-dasharray:none;stroke-dashoffset:0;stroke-opacity:1;stop-color:#000000;stop-opacity:1"
         id="rect895"
         width="33.866665"
         height="33.866665"
         x="47.014252"
         y="50.552963"
         rx="0"
         ry="6.3152952" />
    </clipPath>
    <linearGradient
       inkscape:collect="always"
       xlink:href="#linearGradient64"
       id="linearGradient897"
       gradientUnits="userSpaceOnUse"
       x1="63.622772"
       y1="80.642242"
       x2="63.622772"
       y2="51.282772" />
    <clipPath
       clipPathUnits="userSpaceOnUse"
       id="clipPath893-9">
      <rect
         style="font-variation-settings:normal;opacity:1;vector-effect:none;fill:url(#linearGradient897);fill-opacity:1;fill-rule:evenodd;stroke:none;stroke-width:0.0703392;stroke-linecap:butt;stroke-linejoin:miter;stroke-miterlimit:4;stroke-dasharray:none;stroke-dashoffset:0;stroke-opacity:1;stop-color:#000000;stop-opacity:1"
         id="rect895-1"
         width="33.866665"
         height="33.866665"
         x="47.014252"
         y="50.552963"
         rx="0"
         ry="6.3152952" />
    </clipPath>
    <clipPath
       clipPathUnits="userSpaceOnUse"
       id="clipPath893-91">
      <rect
         style="font-variation-settings:normal;opacity:1;vector-effect:none;fill:url(#linearGradient897);fill-opacity:1;fill-rule:evenodd;stroke:none;stroke-width:0.0703392;stroke-linecap:butt;stroke-linejoin:miter;stroke-miterlimit:4;stroke-dasharray:none;stroke-dashoffset:0;stroke-opacity:1;stop-color:#000000;stop-opacity:1"
         id="rect895-2"
         width="33.866665"
         height="33.866665"
         x="47.014252"
         y="50.552963"
         rx="0"
         ry="6.3152952" />
    </clipPath>
  </defs>
  <sodipodi:namedview
     inkscape:document-rotation="0"
     fit-margin-bottom="0"
     fit-margin-right="0"
     fit-margin-left="0"
     fit-margin-top="0"
     inkscape:pagecheckerboard="0"
     inkscape:window-maximized="1"
     inkscape:window-y="0"
     inkscape:window-x="0"
     inkscape:window-height="743"
     inkscape:window-width="1366"
     showgrid="false"
     inkscape:current-layer="layer1-3"
     inkscape:document-units="mm"
     inkscape:cy="22.654196"
     inkscape:cx="0.065656775"
     inkscape:zoom="8.6589216"
     inkscape:pageshadow="2"
     inkscape:pageopacity="0"
     borderopacity="1.0"
     bordercolor="#666666"
     pagecolor="#d2d2d2"
     id="base"
     inkscape:snap-global="false"
     inkscape:snap-bbox="true"
     inkscape:bbox-paths="true"
     inkscape:snap-bbox-edge-midpoints="true"
     inkscape:snap-bbox-midpoints="true"
     inkscape:bbox-nodes="true" />
  <metadata
     id="metadata5">
    <rdf:RDF>
      <cc:Work
         rdf:about="">
        <dc:format>image/svg+xml</dc:format>
        <dc:type
           rdf:resource="http://purl.org/dc/dcmitype/StillImage" />
      </cc:Work>
    </rdf:RDF>
  </metadata>
  <g
     transform="translate(-56.097592,-48.23206)"
     id="layer1"
     inkscape:groupmode="layer"
     inkscape:label="Capa 1">
    <g
       transform="matrix(0.93011057,0,0,0.93011057,4.9150983,4.3512147)"
       style="font-style:normal;font-variant:normal;font-weight:normal;font-stretch:normal;font-size:20.9395px;line-height:1.25;font-family:'Roboto Black';-inkscape-font-specification:'Roboto Black, ';font-variation-settings:normal;opacity:1;vector-effect:none;fill:#ffe38d;fill-opacity:1;stroke:none;stroke-width:3.11029;stroke-linecap:round;stroke-linejoin:miter;stroke-miterlimit:4;stroke-dasharray:none;stroke-dashoffset:0;stroke-opacity:0.994789;stop-color:#000000;stop-opacity:1"
       id="text23"
       aria-label="N" />
    <g
       transform="translate(20.825392,-1.6845731)"
       id="layer1-9"
       inkscape:label="Capa 1">
      <g
         transform="matrix(0.93011057,0,0,0.93011057,4.9150983,4.3512147)"
         style="font-style:normal;font-variant:normal;font-weight:normal;font-stretch:normal;font-size:20.9395px;line-height:1.25;font-family:'Roboto Black';-inkscape-font-specification:'Roboto Black, ';font-variation-settings:normal;opacity:1;vector-effect:none;fill:#ffe38d;fill-opacity:1;stroke:none;stroke-width:3.11029;stroke-linecap:round;stroke-linejoin:miter;stroke-miterlimit:4;stroke-dasharray:none;stroke-dashoffset:0;stroke-opacity:0.994789;stop-color:#000000;stop-opacity:1"
         id="text23-3"
         aria-label="N" />
      <g
         transform="translate(-11.363466,-0.25774419)"
         id="layer1-3"
         inkscape:label="Capa 1">
        <rect
           ry="0.43268397"
           y="50.174377"
           x="46.635666"
           height="8.4666662"
           width="8.4666662"
           id="rect42"
           style="font-variation-settings:normal;opacity:1;vector-effect:none;fill:#999999;fill-opacity:1;fill-rule:evenodd;stroke:none;stroke-width:0.25;stroke-linecap:butt;stroke-linejoin:miter;stroke-miterlimit:4;stroke-dasharray:none;stroke-dashoffset:0;stroke-opacity:1;paint-order:stroke fill markers;stop-color:#000000;stop-opacity:1" />
        <g
           transform="matrix(0.93011057,0,0,0.93011057,4.9150983,4.3512147)"
           style="font-style:normal;font-variant:normal;font-weight:normal;font-stretch:normal;font-size:20.9395px;line-height:1.25;font-family:'Roboto Black';-inkscape-font-specification:'Roboto Black, ';font-variation-settings:normal;opacity:1;vector-effect:none;fill:#ffe38d;fill-opacity:1;stroke:none;stroke-width:3.11029;stroke-linecap:round;stroke-linejoin:miter;stroke-miterlimit:4;stroke-dasharray:none;stroke-dashoffset:0;stroke-opacity:0.994789;stop-color:#000000;stop-opacity:1"
           id="text23-5"
           aria-label="N" />
        <path
           d="m 50.807314,51.024567 c -1.721108,1e-6 -1.727115,3.51e-4 -2.186921,0.109586 -0.334986,0.07957 -0.688629,0.332945 -0.855016,0.612853 -0.240774,0.405045 -0.289527,0.862513 -0.289516,2.714541 7e-6,1.109093 0.017,1.661982 0.0575,1.878465 0.07409,0.395913 0.13027,0.557095 0.268546,0.769109 0.145515,0.223119 0.289213,0.348655 0.538444,0.469448 0.222995,0.108086 0.434867,0.14947 1.036978,0.202931 0.202866,0.01801 3.101345,0.0077 3.260427,-0.0115 0.181568,-0.02201 0.470694,-0.07797 0.571589,-0.110936 0.130967,-0.04279 0.330125,-0.150669 0.463359,-0.250958 0.146172,-0.110017 0.270054,-0.260269 0.354453,-0.431566 0.114811,-0.23303 0.147206,-0.371813 0.198196,-0.847576 0.02805,-0.261717 0.0298,-0.354644 0.03518,-1.593009 0.0065,-1.514454 -0.0044,-1.831545 -0.07644,-2.196391 -0.06207,-0.314545 -0.09555,-0.40352 -0.228636,-0.610147 -0.141257,-0.219324 -0.258203,-0.333203 -0.459301,-0.447802 -0.19352,-0.110282 -0.378142,-0.164658 -0.683201,-0.200902 -0.473309,-0.05624 -0.464084,-0.05614 -2.005635,-0.05614 z m 2.284328,0.67373 c 0.136981,0.0058 0.215449,0.04206 0.32266,0.148816 0.110215,0.109741 0.150845,0.202992 0.150845,0.343631 0,0.08917 -0.0058,0.12209 -0.03585,0.186696 -0.04452,0.09602 -0.167521,0.222206 -0.261104,0.267869 -0.09526,0.04649 -0.268187,0.05184 -0.370687,0.0115 -0.09666,-0.03802 -0.22921,-0.163228 -0.280722,-0.265164 -0.03538,-0.07003 -0.04008,-0.0926 -0.03991,-0.200901 2.46e-4,-0.15434 0.03036,-0.221739 0.154905,-0.347014 0.116708,-0.117389 0.203005,-0.152228 0.359863,-0.145433 z m -2.143629,0.597971 c 0.34674,0.01113 0.569103,0.06258 0.842164,0.19346 0.314723,0.15085 0.623167,0.426097 0.841488,0.752199 0.40433,0.603941 0.454987,1.448629 0.126494,2.103719 -0.274575,0.547557 -0.764164,0.957671 -1.320406,1.105974 -0.197644,0.0527 -0.352724,0.0704 -0.596617,0.06832 -0.126749,-0.0011 -0.248884,-0.0045 -0.271251,-0.0074 -0.606667,-0.07863 -1.160983,-0.430258 -1.507102,-0.955806 -0.145346,-0.220696 -0.246085,-0.473791 -0.297633,-0.749492 -0.03768,-0.201543 -0.03436,-0.639144 0.0061,-0.827283 0.04334,-0.20145 0.08936,-0.333637 0.179257,-0.514769 0.271661,-0.547336 0.769871,-0.959584 1.334609,-1.104621 0.225812,-0.058 0.380908,-0.07329 0.662909,-0.06426 z m -0.04667,0.730552 c -0.116314,-0.0036 -0.23326,0.0018 -0.317249,0.01758 -0.284019,0.05337 -0.52959,0.188659 -0.740022,0.408568 -0.269506,0.281643 -0.393878,0.622677 -0.374747,1.027508 0.01704,0.360624 0.132719,0.622972 0.387599,0.876662 0.232076,0.230995 0.475429,0.35687 0.781961,0.405185 0.128163,0.0202 0.428813,0.0061 0.560766,-0.02638 0.125034,-0.03076 0.326972,-0.120518 0.430214,-0.191432 0.103685,-0.07122 0.294766,-0.262425 0.367982,-0.368658 0.169071,-0.245305 0.237593,-0.466653 0.238106,-0.768432 4.55e-4,-0.267362 -0.05765,-0.485618 -0.186696,-0.704848 -0.181044,-0.30758 -0.500785,-0.552036 -0.835401,-0.638556 -0.08082,-0.02089 -0.196199,-0.0336 -0.312513,-0.03721 z"
           style="font-variation-settings:normal;opacity:1;vector-effect:none;fill:#ffffff;fill-opacity:1;stroke-width:0.0195765;stroke-linecap:butt;stroke-linejoin:miter;stroke-miterlimit:4;stroke-dasharray:none;stroke-dashoffset:0;stroke-opacity:1;stop-color:#000000;stop-opacity:1"
           id="path43" />
      </g>
    </g>
  </g>
</svg>
