<?xml version="1.0" encoding="UTF-8" standalone="no"?>
<svg
   xmlns:dc="http://purl.org/dc/elements/1.1/"
   xmlns:cc="http://creativecommons.org/ns#"
   xmlns:rdf="http://www.w3.org/1999/02/22-rdf-syntax-ns#"
   xmlns:svg="http://www.w3.org/2000/svg"
   xmlns="http://www.w3.org/2000/svg"
   xmlns:xlink="http://www.w3.org/1999/xlink"
   xmlns:sodipodi="http://sodipodi.sourceforge.net/DTD/sodipodi-0.dtd"
   xmlns:inkscape="http://www.inkscape.org/namespaces/inkscape"
   width="8.4666662mm"
   height="8.4666662mm"
   viewBox="0 0 8.4666662 8.4666662"
   version="1.1"
   id="svg8"
   inkscape:version="1.0 (4035a4f, 2020-05-01)"
   sodipodi:docname="icono-klimt02.svg"
   inkscape:export-filename="./favicon.png"
   inkscape:export-xdpi="96"
   inkscape:export-ydpi="96">
  <defs
     id="defs2">
    <linearGradient
       id="linearGradient64"
       inkscape:collect="always">
      <stop
         id="stop60"
         offset="0"
         style="stop-color:#565656;stop-opacity:1;" />
      <stop
         id="stop62"
         offset="1"
         style="stop-color:#757575;stop-opacity:1" />
    </linearGradient>
    <linearGradient
       inkscape:collect="always"
       id="linearGradient892">
      <stop
         style="stop-color:#363636;stop-opacity:1"
         offset="0"
         id="stop888" />
      <stop
         style="stop-color:#c9c9c9;stop-opacity:1"
         offset="1"
         id="stop890" />
    </linearGradient>
    <linearGradient
       id="linearGradient28"
       inkscape:collect="always">
      <stop
         id="stop24"
         offset="0"
         style="stop-color:#808080;stop-opacity:1" />
      <stop
         id="stop26"
         offset="1"
         style="stop-color:#1a1a1a;stop-opacity:1" />
    </linearGradient>
    <linearGradient
       gradientTransform="matrix(3.7795276,0,0,3.7795276,-178.42254,-191.06632)"
       inkscape:collect="always"
       xlink:href="#linearGradient28"
       id="linearGradient32-3"
       x1="50.432499"
       y1="57.390835"
       x2="85.329559"
       y2="57.390835"
       gradientUnits="userSpaceOnUse" />
    <linearGradient
       gradientTransform="matrix(3.7795276,0,0,3.7795276,-178.42254,-191.06632)"
       inkscape:collect="always"
       xlink:href="#linearGradient892"
       id="linearGradient32-35"
       x1="50.432499"
       y1="57.390835"
       x2="85.329559"
       y2="57.390835"
       gradientUnits="userSpaceOnUse" />
    <clipPath
       id="clipPath893"
       clipPathUnits="userSpaceOnUse">
      <rect
         ry="6.3152952"
         rx="0"
         y="50.552963"
         x="47.014252"
         height="33.866665"
         width="33.866665"
         id="rect895"
         style="font-variation-settings:normal;opacity:1;vector-effect:none;fill:url(#linearGradient897);fill-opacity:1;fill-rule:evenodd;stroke:none;stroke-width:0.0703392;stroke-linecap:butt;stroke-linejoin:miter;stroke-miterlimit:4;stroke-dasharray:none;stroke-dashoffset:0;stroke-opacity:1;stop-color:#000000;stop-opacity:1" />
    </clipPath>
    <linearGradient
       y2="51.282772"
       x2="63.622772"
       y1="80.642242"
       x1="63.622772"
       gradientUnits="userSpaceOnUse"
       id="linearGradient897"
       xlink:href="#linearGradient64"
       inkscape:collect="always" />
    <clipPath
       clipPathUnits="userSpaceOnUse"
       id="clipPath893-912">
      <rect
         style="font-variation-settings:normal;opacity:1;vector-effect:none;fill:url(#linearGradient897);fill-opacity:1;fill-rule:evenodd;stroke:none;stroke-width:0.0703392;stroke-linecap:butt;stroke-linejoin:miter;stroke-miterlimit:4;stroke-dasharray:none;stroke-dashoffset:0;stroke-opacity:1;stop-color:#000000;stop-opacity:1"
         id="rect895-7"
         width="33.866665"
         height="33.866665"
         x="47.014252"
         y="50.552963"
         rx="0"
         ry="6.3152952" />
    </clipPath>
    <clipPath
       clipPathUnits="userSpaceOnUse"
       id="clipPath893-9">
      <rect
         style="font-variation-settings:normal;opacity:1;vector-effect:none;fill:url(#linearGradient897);fill-opacity:1;fill-rule:evenodd;stroke:none;stroke-width:0.0703392;stroke-linecap:butt;stroke-linejoin:miter;stroke-miterlimit:4;stroke-dasharray:none;stroke-dashoffset:0;stroke-opacity:1;stop-color:#000000;stop-opacity:1"
         id="rect895-1"
         width="33.866665"
         height="33.866665"
         x="47.014252"
         y="50.552963"
         rx="0"
         ry="6.3152952" />
    </clipPath>
    <clipPath
       clipPathUnits="userSpaceOnUse"
       id="clipPath893-91">
      <rect
         style="font-variation-settings:normal;opacity:1;vector-effect:none;fill:url(#linearGradient897);fill-opacity:1;fill-rule:evenodd;stroke:none;stroke-width:0.0703392;stroke-linecap:butt;stroke-linejoin:miter;stroke-miterlimit:4;stroke-dasharray:none;stroke-dashoffset:0;stroke-opacity:1;stop-color:#000000;stop-opacity:1"
         id="rect895-2"
         width="33.866665"
         height="33.866665"
         x="47.014252"
         y="50.552963"
         rx="0"
         ry="6.3152952" />
    </clipPath>
  </defs>
  <sodipodi:namedview
     inkscape:bbox-nodes="true"
     inkscape:snap-bbox-midpoints="true"
     inkscape:snap-bbox-edge-midpoints="true"
     inkscape:bbox-paths="true"
     inkscape:snap-bbox="true"
     inkscape:snap-global="false"
     id="base"
     pagecolor="#d2d2d2"
     bordercolor="#666666"
     borderopacity="1.0"
     inkscape:pageopacity="0"
     inkscape:pageshadow="2"
     inkscape:zoom="5.866813"
     inkscape:cx="-2.0998762"
     inkscape:cy="31.305471"
     inkscape:document-units="mm"
     inkscape:current-layer="layer1"
     showgrid="false"
     inkscape:window-width="1366"
     inkscape:window-height="743"
     inkscape:window-x="0"
     inkscape:window-y="0"
     inkscape:window-maximized="1"
     inkscape:pagecheckerboard="0"
     fit-margin-top="0"
     fit-margin-left="0"
     fit-margin-right="0"
     fit-margin-bottom="0"
     inkscape:document-rotation="0" />
  <metadata
     id="metadata5">
    <rdf:RDF>
      <cc:Work
         rdf:about="">
        <dc:format>image/svg+xml</dc:format>
        <dc:type
           rdf:resource="http://purl.org/dc/dcmitype/StillImage" />
      </cc:Work>
    </rdf:RDF>
  </metadata>
  <g
     inkscape:label="Capa 1"
     inkscape:groupmode="layer"
     id="layer1"
     transform="translate(-56.743594,-43.37044)">
    <rect
       style="font-variation-settings:normal;vector-effect:none;fill:#999999;fill-opacity:1;fill-rule:evenodd;stroke:none;stroke-width:0.25;stroke-linecap:butt;stroke-linejoin:miter;stroke-miterlimit:4;stroke-dasharray:none;stroke-dashoffset:0;stroke-opacity:1;paint-order:stroke fill markers;stop-color:#000000"
       id="rect42"
       width="8.4666662"
       height="8.4666662"
       x="56.768272"
       y="43.370441"
       ry="0.43268397" />
    <g
       style="font-variation-settings:normal;opacity:1;vector-effect:none;fill:#ffffff;fill-opacity:1;stroke-width:0.132001;stroke-linecap:butt;stroke-linejoin:miter;stroke-miterlimit:4;stroke-dasharray:none;stroke-dashoffset:0;stroke-opacity:1;stop-color:#000000;stop-opacity:1"
       id="g249"
       transform="matrix(0.13443854,0,0,0.13443854,66.645802,45.286592)">
      <g
         style="font-variation-settings:normal;vector-effect:none;fill:#ffffff;fill-opacity:1;stroke-width:0.132001;stroke-linecap:butt;stroke-linejoin:miter;stroke-miterlimit:4;stroke-dasharray:none;stroke-dashoffset:0;stroke-opacity:1;stop-color:#000000;stop-opacity:1"
         id="g259"
         transform="translate(-0.18592312,0.55735748)">
        <path
           id="path237"
           style="font-variation-settings:normal;vector-effect:none;fill:#ffffff;fill-opacity:1;stroke-width:0.132001;stroke-linecap:butt;stroke-linejoin:miter;stroke-miterlimit:4;stroke-dasharray:none;stroke-dashoffset:0;stroke-opacity:1;stop-color:#000000;stop-opacity:1"
           d="m -28.806641,34.259669 c -0.341731,-0.771115 -0.118222,-1.672386 -0.01791,-2.480141 0.07747,-0.728739 0.486689,-1.332929 0.851755,-1.937806 1.264018,-1.734591 3.226378,-2.736746 5.067507,-3.73718 0.868449,-0.556063 1.857544,-1.021752 2.501695,-1.851947 0.506808,-0.620671 0.754945,-1.408843 0.653476,-2.207252 -0.01,-1.106531 -0.762201,-2.12153 -1.809697,-2.469768 -0.937832,-0.397019 -2.014417,-0.438692 -2.956578,-0.03145 -1.015057,0.392689 -1.732237,1.351562 -2.106701,2.342332 -0.0054,0.675329 -0.232389,1.511167 -1.105846,1.365985 -0.747931,0.210825 -1.319261,-0.395071 -0.941729,-1.106697 0.367922,-1.544942 1.147364,-3.103542 2.589483,-3.897039 0.690147,-0.443835 1.491001,-0.681758 2.312802,-0.657461 0.993886,-0.02084 2.047495,-0.174831 2.964299,0.31567 1.287116,0.477329 2.354819,1.525327 2.734744,2.859469 0.600854,1.646525 0.183349,3.58463 -1.026689,4.849167 -1.34267,1.397535 -3.145414,2.196034 -4.779022,3.186529 -1.08978,0.725094 -2.221417,1.522161 -2.865966,2.693178 -0.496884,0.640238 0.141921,1.070277 0.771117,0.964938 2.527965,0.105578 5.062967,-0.04528 7.58863,0.116564 0.718279,0.08367 0.577588,1.468722 0.05664,1.717796 -1.234045,0.234468 -2.504843,0.111496 -3.755015,0.145414 -2.110486,-0.0213 -4.224248,0.04576 -6.332388,-0.0688 -0.133473,-0.0209 -0.284139,-0.02097 -0.394606,-0.111497 z" />
        <g
           style="font-variation-settings:normal;vector-effect:none;fill:#ffffff;fill-opacity:1;stroke-width:0.132001;stroke-linecap:butt;stroke-linejoin:miter;stroke-miterlimit:4;stroke-dasharray:none;stroke-dashoffset:0;stroke-opacity:1;stop-color:#000000;stop-opacity:1"
           id="g253">
          <path
             d="m -23.272227,-2.7560274 c -0.110062,10e-4 -0.220238,0.0041 -0.329883,0.0087 -1.498956,-0.09233 -2.937688,0.6998083 -3.877907,1.83218733 -1.660115,1.97247957 -2.008061,4.68265257 -1.931597,7.17562057 0.0792,1.1696351 0.09294,2.3823513 0.511095,3.4905186 0.164972,0.6874779 0.470192,1.3078549 0.796846,1.9280309 0.886136,1.203188 2.083893,2.355192 3.623807,2.581333 1.401894,0.151704 2.926034,0.05606 4.090325,-0.829165 0.772857,-0.610578 1.542529,-1.316545 1.932267,-2.23919 0.399141,-0.588735 0.476377,-1.3192989 0.746917,-1.9661472 0.407884,-2.1908702 0.496161,-4.4741613 0.03433,-6.6643033 -0.417891,-1.96106396 -1.521361,-3.9219752 -3.366365,-4.8457109 -0.685436,-0.383138 -1.459396,-0.478717 -2.22983,-0.471867 z m -0.139086,1.7486025 c 1.411907,-0.013921 2.703276,0.98063443 3.283449,2.2360714 0.915644,1.906625 1.081672,4.100725 0.817576,6.1770551 -0.19004,1.1390472 -0.403554,2.3158015 -1.018625,3.3133174 -0.415424,0.816554 -1.207571,1.341729 -2.044159,1.656102 -0.257178,0.107446 -0.521471,0.207038 -0.799299,0.244291 -0.779132,0.062 -1.530662,-0.289792 -2.18369,-0.682055 -1.253796,-0.824272 -1.724424,-2.3574219 -2.028334,-3.7470682 -0.306323,-1.6613293 -0.379991,-3.4064203 0.0497,-5.0530023 0.175614,-0.508274 0.133428,-1.106687 0.461167,-1.550896 0.262033,-0.423233 0.431445,-0.92689796 0.784809,-1.31083797 0.559844,-0.834944 1.588922,-1.162158 2.540321,-1.27829713 0.04577,-0.00256 0.09153,-0.00423 0.13708,-0.00471 z"
             style="font-variation-settings:normal;vector-effect:none;fill:#ffffff;fill-opacity:1;stroke-width:0.132001;stroke-linecap:butt;stroke-linejoin:miter;stroke-miterlimit:4;stroke-dasharray:none;stroke-dashoffset:0;stroke-opacity:1;stop-color:#000000;stop-opacity:1"
             id="path233" />
          <path
             d="m -65.910866,39.012902 c -0.400914,-6.731339 -0.256778,-13.49022 -0.318795,-20.233939 0.04033,-8.134957 -0.07313,-16.2784236 0.297995,-24.4060935 0.979436,-1.4049435 4.952889,-1.3929757 4.682676,1.0978801 0.370329,6.3561203 -0.127942,12.7505672 0.413257,19.0978404 1.827146,0.831726 3.154064,-2.042786 4.637353,-2.934109 6.271365,-5.8105601 12.173415,-12.01747341 18.570471,-17.6898773 1.911742,-0.5613806 3.985481,-0.3378731 5.942193,-0.1352827 1.521825,1.7187453 -2.301014,2.8851725 -3.084366,4.3468629 -4.171871,4.1781178 -8.584713,8.1178425 -12.623516,12.4262011 -2.067842,1.685826 0.592258,3.826711 1.467447,5.426645 4.977806,6.920552 9.892204,13.890788 14.926923,20.767542 0.840431,1.141314 2.242204,3.594924 -0.382892,3.030803 -1.375553,0.04262 -2.752016,0.01717 -4.128011,0.02412 -3.137461,-4.093685 -6.04327,-8.360341 -9.042869,-12.555571 -2.331657,-3.329523 -4.724119,-6.620369 -7.068639,-9.937482 -1.598251,-2.53674 -3.296416,0.603844 -4.651149,1.673777 -1.402727,1.704277 -3.72802,2.741734 -4.429428,4.935434 -0.731943,4.133501 -0.248782,8.368645 -0.462501,12.543695 0.221393,1.830578 -0.24251,3.906447 -2.57608,3.340147 -0.768282,-0.04488 -1.944152,0.195371 -2.170069,-0.818595 z"
             style="font-variation-settings:normal;vector-effect:none;fill:#ffffff;fill-opacity:1;stroke-width:0.132001;stroke-linecap:butt;stroke-linejoin:miter;stroke-miterlimit:4;stroke-dasharray:none;stroke-dashoffset:0;stroke-opacity:1;stop-color:#000000;stop-opacity:1"
             id="path245" />
        </g>
      </g>
    </g>
  </g>
</svg>
