<?xml version="1.0" encoding="UTF-8" standalone="no"?>
<svg
   inkscape:export-ydpi="96"
   inkscape:export-xdpi="96"
   inkscape:export-filename="./favicon.png"
   sodipodi:docname="icono-whatsapp.svg"
   inkscape:version="1.3.2 (1:1.3.2+202311252150+091e20ef0f)"
   id="svg8"
   version="1.1"
   viewBox="0 0 8.4666662 8.4666662"
   height="8.4666662mm"
   width="8.4666662mm"
   xml:space="preserve"
   xmlns:inkscape="http://www.inkscape.org/namespaces/inkscape"
   xmlns:sodipodi="http://sodipodi.sourceforge.net/DTD/sodipodi-0.dtd"
   xmlns:xlink="http://www.w3.org/1999/xlink"
   xmlns="http://www.w3.org/2000/svg"
   xmlns:svg="http://www.w3.org/2000/svg"
   xmlns:rdf="http://www.w3.org/1999/02/22-rdf-syntax-ns#"
   xmlns:cc="http://creativecommons.org/ns#"
   xmlns:dc="http://purl.org/dc/elements/1.1/"><defs
     id="defs2"><linearGradient
       inkscape:collect="always"
       id="linearGradient64"><stop
         style="stop-color:#565656;stop-opacity:1;"
         offset="0"
         id="stop60" /><stop
         style="stop-color:#757575;stop-opacity:1"
         offset="1"
         id="stop62" /></linearGradient><linearGradient
       id="linearGradient892"
       inkscape:collect="always"><stop
         id="stop888"
         offset="0"
         style="stop-color:#363636;stop-opacity:1" /><stop
         id="stop890"
         offset="1"
         style="stop-color:#c9c9c9;stop-opacity:1" /></linearGradient><linearGradient
       inkscape:collect="always"
       id="linearGradient28"><stop
         style="stop-color:#808080;stop-opacity:1"
         offset="0"
         id="stop24" /><stop
         style="stop-color:#1a1a1a;stop-opacity:1"
         offset="1"
         id="stop26" /></linearGradient><linearGradient
       gradientUnits="userSpaceOnUse"
       y2="57.390835"
       x2="85.329559"
       y1="57.390835"
       x1="50.432499"
       id="linearGradient32-3"
       xlink:href="#linearGradient28"
       inkscape:collect="always"
       gradientTransform="matrix(3.7795276,0,0,3.7795276,-178.42254,-191.06632)" /><linearGradient
       gradientUnits="userSpaceOnUse"
       y2="57.390835"
       x2="85.329559"
       y1="57.390835"
       x1="50.432499"
       id="linearGradient32-35"
       xlink:href="#linearGradient892"
       inkscape:collect="always"
       gradientTransform="matrix(3.7795276,0,0,3.7795276,-178.42254,-191.06632)" /><clipPath
       clipPathUnits="userSpaceOnUse"
       id="clipPath893"><rect
         style="font-variation-settings:normal;opacity:1;vector-effect:none;fill:url(#linearGradient897);fill-opacity:1;fill-rule:evenodd;stroke:none;stroke-width:0.0703392;stroke-linecap:butt;stroke-linejoin:miter;stroke-miterlimit:4;stroke-dasharray:none;stroke-dashoffset:0;stroke-opacity:1;stop-color:#000000;stop-opacity:1"
         id="rect895"
         width="33.866665"
         height="33.866665"
         x="47.014252"
         y="50.552963"
         rx="0"
         ry="6.3152952" /></clipPath><linearGradient
       inkscape:collect="always"
       xlink:href="#linearGradient64"
       id="linearGradient897"
       gradientUnits="userSpaceOnUse"
       x1="63.622772"
       y1="80.642242"
       x2="63.622772"
       y2="51.282772" /></defs><sodipodi:namedview
     inkscape:document-rotation="0"
     fit-margin-bottom="0"
     fit-margin-right="0"
     fit-margin-left="0"
     fit-margin-top="0"
     inkscape:pagecheckerboard="0"
     inkscape:window-maximized="1"
     inkscape:window-y="0"
     inkscape:window-x="0"
     inkscape:window-height="743"
     inkscape:window-width="1366"
     showgrid="false"
     inkscape:current-layer="layer1-3"
     inkscape:document-units="mm"
     inkscape:cy="23.471062"
     inkscape:cx="-5.7968131"
     inkscape:zoom="6.1227819"
     inkscape:pageshadow="2"
     inkscape:pageopacity="0"
     borderopacity="1.0"
     bordercolor="#666666"
     pagecolor="#d2d2d2"
     id="base"
     inkscape:snap-global="false"
     inkscape:snap-bbox="true"
     inkscape:bbox-paths="true"
     inkscape:snap-bbox-edge-midpoints="true"
     inkscape:snap-bbox-midpoints="true"
     inkscape:bbox-nodes="true"
     inkscape:showpageshadow="2"
     inkscape:deskcolor="#d1d1d1" /><metadata
     id="metadata5"><rdf:RDF><cc:Work
         rdf:about=""><dc:format>image/svg+xml</dc:format><dc:type
           rdf:resource="http://purl.org/dc/dcmitype/StillImage" /></cc:Work></rdf:RDF></metadata><g
     transform="translate(-35.2722,-49.916633)"
     id="layer1"
     inkscape:groupmode="layer"
     inkscape:label="Capa 1"><g
       transform="matrix(0.93011057,0,0,0.93011057,4.9150983,4.3512147)"
       style="font-style:normal;font-variant:normal;font-weight:normal;font-stretch:normal;font-size:20.9395px;line-height:1.25;font-family:'Roboto Black';-inkscape-font-specification:'Roboto Black, ';font-variation-settings:normal;opacity:1;vector-effect:none;fill:#ffe38d;fill-opacity:1;stroke:none;stroke-width:3.11029;stroke-linecap:round;stroke-linejoin:miter;stroke-miterlimit:4;stroke-dasharray:none;stroke-dashoffset:0;stroke-opacity:0.994789;stop-color:#000000;stop-opacity:1"
       id="text23"
       aria-label="N" /><g
       transform="translate(-11.363466,-0.25774419)"
       id="layer1-3"
       inkscape:label="Capa 1"><rect
         ry="0.43268397"
         y="50.174377"
         x="46.635666"
         height="8.4666662"
         width="8.4666662"
         id="rect42"
         style="font-variation-settings:normal;opacity:1;vector-effect:none;fill:#999999;fill-opacity:1;fill-rule:evenodd;stroke:none;stroke-width:0.25;stroke-linecap:butt;stroke-linejoin:miter;stroke-miterlimit:4;stroke-dasharray:none;stroke-dashoffset:0;stroke-opacity:1;paint-order:stroke fill markers;stop-color:#000000;stop-opacity:1" /><g
         transform="matrix(0.93011057,0,0,0.93011057,4.9150983,4.3512147)"
         style="font-style:normal;font-variant:normal;font-weight:normal;font-stretch:normal;font-size:20.9395px;line-height:1.25;font-family:'Roboto Black';-inkscape-font-specification:'Roboto Black, ';font-variation-settings:normal;opacity:1;vector-effect:none;fill:#ffe38d;fill-opacity:1;stroke:none;stroke-width:3.11029;stroke-linecap:round;stroke-linejoin:miter;stroke-miterlimit:4;stroke-dasharray:none;stroke-dashoffset:0;stroke-opacity:0.994789;stop-color:#000000;stop-opacity:1"
         id="text23-5"
         aria-label="N" /><path
         style="font-variation-settings:normal;vector-effect:none;fill:#ffffff;fill-opacity:1;stroke-width:0.0231013;stroke-linecap:butt;stroke-linejoin:miter;stroke-miterlimit:4;stroke-dasharray:none;stroke-dashoffset:0;stroke-opacity:1;-inkscape-stroke:none;stop-color:#000000"
         d="m 47.436639,57.839925 c 0.0048,-0.02403 0.111994,-0.41337 0.235524,-0.86613 l 0.22471,-0.823206 -0.110312,-0.222547 c -0.24187,-0.4878 -0.358406,-0.992328 -0.358719,-1.553309 -4.8e-4,-0.940368 0.359151,-1.807051 1.02559,-2.471254 0.67151,-0.669299 1.532664,-1.026383 2.475172,-1.026383 0.944622,0 1.806762,0.357277 2.475195,1.02571 0.946761,0.946761 1.270728,2.330829 0.84289,3.601075 -0.300318,0.891629 -0.975457,1.646726 -1.830075,2.046805 -0.509742,0.238649 -1.021768,0.341655 -1.608609,0.32363 -0.529113,-0.01682 -0.974134,-0.127135 -1.432614,-0.356819 l -0.213655,-0.107188 -0.830032,0.226392 c -0.456509,0.124492 -0.847023,0.230718 -0.867812,0.236246 -0.03389,0.0096 -0.03677,0.0048 -0.02716,-0.03317 z m 4.543678,-1.884557 c 0.191544,-0.0298 0.472708,-0.198995 0.566245,-0.340694 0.08484,-0.128337 0.126894,-0.430145 0.06898,-0.494217 -0.03413,-0.03773 -0.759231,-0.364487 -0.808811,-0.36439 -0.06008,1.2e-4 -0.131461,0.0608 -0.279001,0.236486 -0.08219,0.09805 -0.164146,0.180008 -0.185055,0.185055 -0.06777,0.01682 -0.328989,-0.100459 -0.55466,-0.249729 -0.251315,-0.166068 -0.57033,-0.50383 -0.71525,-0.757139 -0.06201,-0.10839 -0.0584,-0.123771 0.06513,-0.267369 0.114878,-0.133864 0.170154,-0.229516 0.171116,-0.297121 6.24e-4,-0.03869 -0.05215,-0.183613 -0.156216,-0.428295 -0.189381,-0.445261 -0.187939,-0.443795 -0.405078,-0.443795 -0.10863,0 -0.156215,0.0072 -0.211251,0.03437 -0.09613,0.04638 -0.206925,0.176644 -0.28573,0.335455 -0.153572,0.309642 -0.146121,0.609888 0.02427,0.969736 0.145401,0.307167 0.341968,0.581674 0.632648,0.883818 0.344539,0.358142 0.636013,0.573671 1.028858,0.760817 0.446103,0.212453 0.753102,0.282149 1.043711,0.236726 z"
         id="path1" /></g></g></svg>
