<?xml version="1.0" encoding="UTF-8" standalone="no"?>
<svg
   xmlns:dc="http://purl.org/dc/elements/1.1/"
   xmlns:cc="http://creativecommons.org/ns#"
   xmlns:rdf="http://www.w3.org/1999/02/22-rdf-syntax-ns#"
   xmlns:svg="http://www.w3.org/2000/svg"
   xmlns="http://www.w3.org/2000/svg"
   xmlns:xlink="http://www.w3.org/1999/xlink"
   xmlns:sodipodi="http://sodipodi.sourceforge.net/DTD/sodipodi-0.dtd"
   xmlns:inkscape="http://www.inkscape.org/namespaces/inkscape"
   inkscape:export-ydpi="96"
   inkscape:export-xdpi="96"
   inkscape:export-filename="./favicon.png"
   sodipodi:docname="icono-email.svg"
   inkscape:version="1.0 (4035a4f, 2020-05-01)"
   id="svg8"
   version="1.1"
   viewBox="0 0 8.4666662 8.4666662"
   height="8.4666662mm"
   width="8.4666662mm">
  <defs
     id="defs2">
    <linearGradient
       inkscape:collect="always"
       id="linearGradient64">
      <stop
         style="stop-color:#565656;stop-opacity:1;"
         offset="0"
         id="stop60" />
      <stop
         style="stop-color:#757575;stop-opacity:1"
         offset="1"
         id="stop62" />
    </linearGradient>
    <linearGradient
       id="linearGradient892"
       inkscape:collect="always">
      <stop
         id="stop888"
         offset="0"
         style="stop-color:#363636;stop-opacity:1" />
      <stop
         id="stop890"
         offset="1"
         style="stop-color:#c9c9c9;stop-opacity:1" />
    </linearGradient>
    <linearGradient
       inkscape:collect="always"
       id="linearGradient28">
      <stop
         style="stop-color:#808080;stop-opacity:1"
         offset="0"
         id="stop24" />
      <stop
         style="stop-color:#1a1a1a;stop-opacity:1"
         offset="1"
         id="stop26" />
    </linearGradient>
    <linearGradient
       gradientUnits="userSpaceOnUse"
       y2="57.390835"
       x2="85.329559"
       y1="57.390835"
       x1="50.432499"
       id="linearGradient32-3"
       xlink:href="#linearGradient28"
       inkscape:collect="always"
       gradientTransform="matrix(3.7795276,0,0,3.7795276,-178.42254,-191.06632)" />
    <linearGradient
       gradientUnits="userSpaceOnUse"
       y2="57.390835"
       x2="85.329559"
       y1="57.390835"
       x1="50.432499"
       id="linearGradient32-35"
       xlink:href="#linearGradient892"
       inkscape:collect="always"
       gradientTransform="matrix(3.7795276,0,0,3.7795276,-178.42254,-191.06632)" />
    <clipPath
       clipPathUnits="userSpaceOnUse"
       id="clipPath893">
      <rect
         style="font-variation-settings:normal;opacity:1;vector-effect:none;fill:url(#linearGradient897);fill-opacity:1;fill-rule:evenodd;stroke:none;stroke-width:0.0703392;stroke-linecap:butt;stroke-linejoin:miter;stroke-miterlimit:4;stroke-dasharray:none;stroke-dashoffset:0;stroke-opacity:1;stop-color:#000000;stop-opacity:1"
         id="rect895"
         width="33.866665"
         height="33.866665"
         x="47.014252"
         y="50.552963"
         rx="0"
         ry="6.3152952" />
    </clipPath>
    <linearGradient
       inkscape:collect="always"
       xlink:href="#linearGradient64"
       id="linearGradient897"
       gradientUnits="userSpaceOnUse"
       x1="63.622772"
       y1="80.642242"
       x2="63.622772"
       y2="51.282772" />
  </defs>
  <sodipodi:namedview
     inkscape:snap-page="true"
     inkscape:document-rotation="0"
     fit-margin-bottom="0"
     fit-margin-right="0"
     fit-margin-left="0"
     fit-margin-top="0"
     inkscape:pagecheckerboard="0"
     inkscape:window-maximized="1"
     inkscape:window-y="0"
     inkscape:window-x="0"
     inkscape:window-height="743"
     inkscape:window-width="1366"
     showgrid="false"
     inkscape:current-layer="layer1"
     inkscape:document-units="mm"
     inkscape:cy="26.071582"
     inkscape:cx="-0.10140874"
     inkscape:zoom="6.1227822"
     inkscape:pageshadow="2"
     inkscape:pageopacity="0"
     borderopacity="1.0"
     bordercolor="#666666"
     pagecolor="#d2d2d2"
     id="base"
     inkscape:snap-global="true"
     inkscape:snap-bbox="true"
     inkscape:bbox-paths="true"
     inkscape:snap-bbox-edge-midpoints="true"
     inkscape:snap-bbox-midpoints="true"
     inkscape:bbox-nodes="true" />
  <metadata
     id="metadata5">
    <rdf:RDF>
      <cc:Work
         rdf:about="">
        <dc:format>image/svg+xml</dc:format>
        <dc:type
           rdf:resource="http://purl.org/dc/dcmitype/StillImage" />
        <dc:title></dc:title>
      </cc:Work>
    </rdf:RDF>
  </metadata>
  <g
     transform="translate(-46.635666,-50.174377)"
     id="layer1"
     inkscape:groupmode="layer"
     inkscape:label="Capa 1">
    <rect
       ry="0.43268397"
       y="50.174377"
       x="46.635666"
       height="8.4666662"
       width="8.4666662"
       id="rect42"
       style="fill:#999999;fill-opacity:1;fill-rule:evenodd;stroke-width:0.25;paint-order:stroke fill markers;stop-color:#000000;font-variation-settings:normal;opacity:1;vector-effect:none;stroke:none;stroke-linecap:butt;stroke-linejoin:miter;stroke-miterlimit:4;stroke-dasharray:none;stroke-dashoffset:0;stroke-opacity:1;stop-opacity:1" />
    <g
       transform="matrix(0.93011057,0,0,0.93011057,4.9150983,4.3512147)"
       style="font-style:normal;font-variant:normal;font-weight:normal;font-stretch:normal;font-size:20.9395px;line-height:1.25;font-family:'Roboto Black';-inkscape-font-specification:'Roboto Black, ';font-variation-settings:normal;opacity:1;vector-effect:none;fill:#ffe38d;fill-opacity:1;stroke:none;stroke-width:3.11029;stroke-linecap:round;stroke-linejoin:miter;stroke-miterlimit:4;stroke-dasharray:none;stroke-dashoffset:0;stroke-opacity:0.994789;stop-color:#000000;stop-opacity:1"
       id="text23"
       aria-label="N" />
    <path
       id="path81"
       style="font-variation-settings:normal;opacity:1;vector-effect:none;fill:#ffffff;fill-opacity:1;stroke-width:0.0190067;stroke-linecap:butt;stroke-linejoin:miter;stroke-miterlimit:4;stroke-dasharray:none;stroke-dashoffset:0;stroke-opacity:1;stop-color:#000000;stop-opacity:1"
       d="m 48.30599,51.240814 0.03708,0.05867 c 0.08884,0.142673 1.983781,3.110383 2.038454,3.192453 0.08431,0.126565 0.22674,0.287578 0.290022,0.327657 0.07139,0.04522 0.133487,0.05065 0.259026,0.02269 0.05757,-0.01282 0.154094,-0.04481 0.214196,-0.0714 0.120789,-0.05344 3.495276,-1.804882 3.506272,-1.819829 0.0038,-0.005 -1.420968,-0.391173 -3.169207,-0.859539 z m -0.448315,0.375811 -0.509198,1.900638 c -0.476655,1.778892 -0.507751,1.899588 -0.484295,1.889013 0.0138,-0.0061 0.593703,-0.312831 1.288494,-0.681329 0.694789,-0.368495 1.265591,-0.67329 1.268567,-0.677455 0.0047,-0.0065 -1.462518,-2.292279 -1.535896,-2.392678 z m 7.010328,1.883485 c -0.0022,-0.0039 -0.143315,0.06433 -0.313268,0.151653 -0.169956,0.08731 -0.746144,0.382828 -1.28019,0.656976 -0.534046,0.274153 -0.970167,0.505143 -0.969691,0.513074 4.74e-4,0.0079 0.347777,0.569046 0.772099,1.246982 l 0.771547,1.232591 0.511908,-1.897332 c 0.281364,-1.043497 0.509719,-1.90012 0.507477,-1.903976 z m -5.175002,1.030021 c -0.01131,-0.009 -2.573236,1.312934 -2.591377,1.337198 -0.0038,0.0049 1.413922,0.389833 3.150388,0.855118 l 3.157029,0.846265 -0.03154,-0.05313 c -0.07826,-0.132266 -1.536118,-2.41446 -1.543645,-2.416476 -0.0046,-0.0013 -0.103727,0.04691 -0.220285,0.106815 -0.266418,0.136946 -0.36045,0.174666 -0.499236,0.200911 -0.181357,0.03429 -0.292487,0.02832 -0.498682,-0.02601 -0.143229,-0.03775 -0.197104,-0.05737 -0.277293,-0.101828 -0.203414,-0.112739 -0.290562,-0.205085 -0.493701,-0.521929 -0.07637,-0.119115 -0.144485,-0.221179 -0.151652,-0.226923 z" />
  </g>
</svg>
