<?xml version="1.0" encoding="UTF-8" standalone="no"?>
<svg
   inkscape:export-ydpi="96"
   inkscape:export-xdpi="96"
   inkscape:export-filename="./favicon.png"
   sodipodi:docname="icono-instagram-menu.svg"
   inkscape:version="1.3.2 (1:1.3.2+202311252150+091e20ef0f)"
   id="svg8"
   version="1.1"
   viewBox="0 0 8.4666662 8.4666662"
   height="8.4666662mm"
   width="8.4666662mm"
   xmlns:inkscape="http://www.inkscape.org/namespaces/inkscape"
   xmlns:sodipodi="http://sodipodi.sourceforge.net/DTD/sodipodi-0.dtd"
   xmlns:xlink="http://www.w3.org/1999/xlink"
   xmlns="http://www.w3.org/2000/svg"
   xmlns:svg="http://www.w3.org/2000/svg"
   xmlns:rdf="http://www.w3.org/1999/02/22-rdf-syntax-ns#"
   xmlns:cc="http://creativecommons.org/ns#"
   xmlns:dc="http://purl.org/dc/elements/1.1/">
  <defs
     id="defs2">
    <linearGradient
       inkscape:collect="always"
       id="linearGradient64">
      <stop
         style="stop-color:#565656;stop-opacity:1;"
         offset="0"
         id="stop60" />
      <stop
         style="stop-color:#757575;stop-opacity:1"
         offset="1"
         id="stop62" />
    </linearGradient>
    <linearGradient
       id="linearGradient892"
       inkscape:collect="always">
      <stop
         id="stop888"
         offset="0"
         style="stop-color:#363636;stop-opacity:1" />
      <stop
         id="stop890"
         offset="1"
         style="stop-color:#c9c9c9;stop-opacity:1" />
    </linearGradient>
    <linearGradient
       inkscape:collect="always"
       id="linearGradient28">
      <stop
         style="stop-color:#808080;stop-opacity:1"
         offset="0"
         id="stop24" />
      <stop
         style="stop-color:#1a1a1a;stop-opacity:1"
         offset="1"
         id="stop26" />
    </linearGradient>
    <linearGradient
       gradientUnits="userSpaceOnUse"
       y2="57.390835"
       x2="85.329559"
       y1="57.390835"
       x1="50.432499"
       id="linearGradient32-3"
       xlink:href="#linearGradient28"
       inkscape:collect="always"
       gradientTransform="matrix(3.7795276,0,0,3.7795276,-178.42254,-191.06632)" />
    <linearGradient
       gradientUnits="userSpaceOnUse"
       y2="57.390835"
       x2="85.329559"
       y1="57.390835"
       x1="50.432499"
       id="linearGradient32-35"
       xlink:href="#linearGradient892"
       inkscape:collect="always"
       gradientTransform="matrix(3.7795276,0,0,3.7795276,-178.42254,-191.06632)" />
    <clipPath
       clipPathUnits="userSpaceOnUse"
       id="clipPath893">
      <rect
         style="font-variation-settings:normal;opacity:1;vector-effect:none;fill:url(#linearGradient897);fill-opacity:1;fill-rule:evenodd;stroke:none;stroke-width:0.0703392;stroke-linecap:butt;stroke-linejoin:miter;stroke-miterlimit:4;stroke-dasharray:none;stroke-dashoffset:0;stroke-opacity:1;stop-color:#000000;stop-opacity:1"
         id="rect895"
         width="33.866665"
         height="33.866665"
         x="47.014252"
         y="50.552963"
         rx="0"
         ry="6.3152952" />
    </clipPath>
    <linearGradient
       inkscape:collect="always"
       xlink:href="#linearGradient64"
       id="linearGradient897"
       gradientUnits="userSpaceOnUse"
       x1="63.622772"
       y1="80.642242"
       x2="63.622772"
       y2="51.282772" />
    <clipPath
       clipPathUnits="userSpaceOnUse"
       id="clipPath893-9">
      <rect
         style="font-variation-settings:normal;opacity:1;vector-effect:none;fill:url(#linearGradient897);fill-opacity:1;fill-rule:evenodd;stroke:none;stroke-width:0.0703392;stroke-linecap:butt;stroke-linejoin:miter;stroke-miterlimit:4;stroke-dasharray:none;stroke-dashoffset:0;stroke-opacity:1;stop-color:#000000;stop-opacity:1"
         id="rect895-1"
         width="33.866665"
         height="33.866665"
         x="47.014252"
         y="50.552963"
         rx="0"
         ry="6.3152952" />
    </clipPath>
    <clipPath
       clipPathUnits="userSpaceOnUse"
       id="clipPath893-91">
      <rect
         style="font-variation-settings:normal;opacity:1;vector-effect:none;fill:url(#linearGradient897);fill-opacity:1;fill-rule:evenodd;stroke:none;stroke-width:0.0703392;stroke-linecap:butt;stroke-linejoin:miter;stroke-miterlimit:4;stroke-dasharray:none;stroke-dashoffset:0;stroke-opacity:1;stop-color:#000000;stop-opacity:1"
         id="rect895-2"
         width="33.866665"
         height="33.866665"
         x="47.014252"
         y="50.552963"
         rx="0"
         ry="6.3152952" />
    </clipPath>
  </defs>
  <sodipodi:namedview
     inkscape:document-rotation="0"
     fit-margin-bottom="0"
     fit-margin-right="0"
     fit-margin-left="0"
     fit-margin-top="0"
     inkscape:pagecheckerboard="0"
     inkscape:window-maximized="1"
     inkscape:window-y="0"
     inkscape:window-x="0"
     inkscape:window-height="743"
     inkscape:window-width="1366"
     showgrid="false"
     inkscape:current-layer="layer1-3"
     inkscape:document-units="mm"
     inkscape:cy="22.654196"
     inkscape:cx="0.065656775"
     inkscape:zoom="8.6589216"
     inkscape:pageshadow="2"
     inkscape:pageopacity="0"
     borderopacity="1.0"
     bordercolor="#666666"
     pagecolor="#d2d2d2"
     id="base"
     inkscape:snap-global="false"
     inkscape:snap-bbox="true"
     inkscape:bbox-paths="true"
     inkscape:snap-bbox-edge-midpoints="true"
     inkscape:snap-bbox-midpoints="true"
     inkscape:bbox-nodes="true"
     inkscape:showpageshadow="2"
     inkscape:deskcolor="#d1d1d1" />
  <metadata
     id="metadata5">
    <rdf:RDF>
      <cc:Work
         rdf:about="">
        <dc:format>image/svg+xml</dc:format>
        <dc:type
           rdf:resource="http://purl.org/dc/dcmitype/StillImage" />
      </cc:Work>
    </rdf:RDF>
  </metadata>
  <g
     transform="translate(-56.097592,-48.23206)"
     id="layer1"
     inkscape:groupmode="layer"
     inkscape:label="Capa 1">
    <g
       transform="matrix(0.93011057,0,0,0.93011057,4.9150983,4.3512147)"
       style="font-style:normal;font-variant:normal;font-weight:normal;font-stretch:normal;font-size:20.9395px;line-height:1.25;font-family:'Roboto Black';-inkscape-font-specification:'Roboto Black, ';font-variation-settings:normal;opacity:1;vector-effect:none;fill:#ffe38d;fill-opacity:1;stroke:none;stroke-width:3.11029;stroke-linecap:round;stroke-linejoin:miter;stroke-miterlimit:4;stroke-dasharray:none;stroke-dashoffset:0;stroke-opacity:0.994789;stop-color:#000000;stop-opacity:1"
       id="text23"
       aria-label="N" />
    <g
       transform="translate(20.825392,-1.6845731)"
       id="layer1-9"
       inkscape:label="Capa 1">
      <g
         transform="matrix(0.93011057,0,0,0.93011057,4.9150983,4.3512147)"
         style="font-style:normal;font-variant:normal;font-weight:normal;font-stretch:normal;font-size:20.9395px;line-height:1.25;font-family:'Roboto Black';-inkscape-font-specification:'Roboto Black, ';font-variation-settings:normal;opacity:1;vector-effect:none;fill:#ffe38d;fill-opacity:1;stroke:none;stroke-width:3.11029;stroke-linecap:round;stroke-linejoin:miter;stroke-miterlimit:4;stroke-dasharray:none;stroke-dashoffset:0;stroke-opacity:0.994789;stop-color:#000000;stop-opacity:1"
         id="text23-3"
         aria-label="N" />
      <g
         transform="translate(-11.363466,-0.25774419)"
         id="layer1-3"
         inkscape:label="Capa 1">
        <rect
           ry="0.43268397"
           y="50.174377"
           x="46.635666"
           height="8.4666662"
           width="8.4666662"
           id="rect42"
           style="font-variation-settings:normal;opacity:0;vector-effect:none;fill:#999999;fill-opacity:1;fill-rule:evenodd;stroke:none;stroke-width:0.25;stroke-linecap:butt;stroke-linejoin:miter;stroke-miterlimit:4;stroke-dasharray:none;stroke-dashoffset:0;stroke-opacity:1;paint-order:stroke fill markers;stop-color:#000000;stop-opacity:1" />
        <g
           transform="matrix(0.93011057,0,0,0.93011057,4.9150983,4.3512147)"
           style="font-style:normal;font-variant:normal;font-weight:normal;font-stretch:normal;font-size:20.9395px;line-height:1.25;font-family:'Roboto Black';-inkscape-font-specification:'Roboto Black, ';font-variation-settings:normal;opacity:1;vector-effect:none;fill:#ffe38d;fill-opacity:1;stroke:none;stroke-width:3.11029;stroke-linecap:round;stroke-linejoin:miter;stroke-miterlimit:4;stroke-dasharray:none;stroke-dashoffset:0;stroke-opacity:0.994789;stop-color:#000000;stop-opacity:1"
           id="text23-5"
           aria-label="N" />
        <path
           d="m 50.793254,50.253542 c -2.113351,2e-6 -2.120727,4.31e-4 -2.685324,0.134561 -0.411329,0.0977 -0.845568,0.408824 -1.049875,0.752523 -0.295647,0.497356 -0.355511,1.059081 -0.355497,3.333189 9e-6,1.361857 0.02087,2.04075 0.0706,2.30657 0.09098,0.486142 0.159959,0.684058 0.329748,0.94439 0.178678,0.273968 0.355125,0.428114 0.661157,0.576436 0.273815,0.132719 0.533973,0.183535 1.273306,0.24918 0.2491,0.02211 3.808147,0.0095 4.003484,-0.01412 0.222947,-0.02703 0.577965,-0.09574 0.701855,-0.136219 0.160814,-0.05254 0.405361,-0.185007 0.568959,-0.308152 0.179485,-0.13509 0.331599,-0.319584 0.435233,-0.52992 0.140977,-0.286138 0.180755,-0.45655 0.243365,-1.04074 0.03444,-0.321363 0.03659,-0.435468 0.0432,-1.956058 0.008,-1.8596 -0.0054,-2.248957 -0.09386,-2.696952 -0.07622,-0.38623 -0.117326,-0.495483 -0.280742,-0.7492 -0.17345,-0.269309 -0.317048,-0.409141 -0.563977,-0.549857 -0.237623,-0.135415 -0.464321,-0.202184 -0.838903,-0.246688 -0.581177,-0.06906 -0.56985,-0.06893 -2.462723,-0.06893 z m 2.80493,0.827274 c 0.168199,0.0071 0.26455,0.05165 0.396195,0.182732 0.135333,0.134751 0.185222,0.249254 0.185222,0.421945 0,0.109492 -0.0071,0.149914 -0.04402,0.229244 -0.05467,0.117903 -0.205699,0.272847 -0.32061,0.328917 -0.11697,0.05709 -0.329307,0.06365 -0.455167,0.01412 -0.118689,-0.04669 -0.281447,-0.200428 -0.344699,-0.325596 -0.04344,-0.08599 -0.04921,-0.113703 -0.04901,-0.246686 3.03e-4,-0.189514 0.03728,-0.272274 0.190209,-0.426099 0.143305,-0.144142 0.24927,-0.186921 0.441876,-0.178578 z m -2.632165,0.73425 c 0.425762,0.01367 0.698802,0.07684 1.034094,0.23755 0.386449,0.185229 0.765188,0.523205 1.033264,0.923626 0.496478,0.74158 0.55868,1.778774 0.155323,2.58316 -0.337151,0.672346 -0.938319,1.175925 -1.621329,1.358027 -0.242687,0.06471 -0.43311,0.08644 -0.732587,0.08389 -0.155635,-0.0014 -0.305605,-0.0055 -0.333069,-0.0091 -0.744928,-0.09655 -1.425573,-0.528315 -1.850573,-1.173636 -0.178471,-0.270993 -0.302168,-0.581769 -0.365464,-0.920302 -0.04627,-0.247475 -0.04219,-0.784806 0.0075,-1.015822 0.05322,-0.247361 0.109725,-0.409674 0.22011,-0.632086 0.333573,-0.672075 0.945326,-1.178275 1.638768,-1.356366 0.277275,-0.07122 0.467718,-0.08999 0.813987,-0.0789 z m -0.05731,0.897046 c -0.142822,-0.0044 -0.28642,0.0022 -0.38955,0.02159 -0.348747,0.06553 -0.650284,0.231655 -0.908674,0.501682 -0.330927,0.345829 -0.483644,0.764586 -0.460153,1.261678 0.02092,0.442811 0.162966,0.764948 0.475934,1.076455 0.284966,0.283639 0.58378,0.438201 0.960171,0.497527 0.157371,0.0248 0.52654,0.0075 0.688565,-0.03239 0.15353,-0.03777 0.40149,-0.147984 0.528261,-0.23506 0.127315,-0.08745 0.361943,-0.322232 0.451845,-0.452675 0.207603,-0.301211 0.291741,-0.573004 0.292371,-0.943559 5.59e-4,-0.328294 -0.07079,-0.596291 -0.229244,-0.865484 -0.222304,-0.377678 -0.614915,-0.677846 -1.02579,-0.784084 -0.09924,-0.02565 -0.240913,-0.04126 -0.383736,-0.04569 z"
           style="font-variation-settings:normal;opacity:1;vector-effect:none;fill:#999999;fill-opacity:1;stroke-width:0.25;stroke-linecap:butt;stroke-linejoin:miter;stroke-miterlimit:4;stroke-dasharray:none;stroke-dashoffset:0;stroke-opacity:1;stop-color:#000000;stop-opacity:1;stroke:none;-inkscape-stroke:none;paint-order:stroke fill markers"
           id="path43" />
      </g>
    </g>
  </g>
</svg>
