<?xml version="1.0" encoding="UTF-8" standalone="no"?>
<svg
   width="25.362793mm"
   height="8.4666672mm"
   viewBox="0 0 25.362792 8.4666672"
   version="1.1"
   id="svg8"
   inkscape:version="1.3.2 (1:1.3.2+202311252150+091e20ef0f)"
   sodipodi:docname="icono-preciouscolective.svg"
   inkscape:export-filename="./favicon.png"
   inkscape:export-xdpi="96"
   inkscape:export-ydpi="96"
   xml:space="preserve"
   xmlns:inkscape="http://www.inkscape.org/namespaces/inkscape"
   xmlns:sodipodi="http://sodipodi.sourceforge.net/DTD/sodipodi-0.dtd"
   xmlns:xlink="http://www.w3.org/1999/xlink"
   xmlns="http://www.w3.org/2000/svg"
   xmlns:svg="http://www.w3.org/2000/svg"
   xmlns:rdf="http://www.w3.org/1999/02/22-rdf-syntax-ns#"
   xmlns:cc="http://creativecommons.org/ns#"
   xmlns:dc="http://purl.org/dc/elements/1.1/"><defs
     id="defs2"><linearGradient
       id="linearGradient64"
       inkscape:collect="always"><stop
         id="stop60"
         offset="0"
         style="stop-color:#565656;stop-opacity:1;" /><stop
         id="stop62"
         offset="1"
         style="stop-color:#757575;stop-opacity:1" /></linearGradient><linearGradient
       inkscape:collect="always"
       id="linearGradient892"><stop
         style="stop-color:#363636;stop-opacity:1"
         offset="0"
         id="stop888" /><stop
         style="stop-color:#c9c9c9;stop-opacity:1"
         offset="1"
         id="stop890" /></linearGradient><linearGradient
       id="linearGradient28"
       inkscape:collect="always"><stop
         id="stop24"
         offset="0"
         style="stop-color:#808080;stop-opacity:1" /><stop
         id="stop26"
         offset="1"
         style="stop-color:#1a1a1a;stop-opacity:1" /></linearGradient><linearGradient
       gradientTransform="matrix(3.7795276,0,0,3.7795276,-178.42254,-191.06632)"
       inkscape:collect="always"
       xlink:href="#linearGradient28"
       id="linearGradient32-3"
       x1="50.432499"
       y1="57.390835"
       x2="85.329559"
       y2="57.390835"
       gradientUnits="userSpaceOnUse" /><linearGradient
       gradientTransform="matrix(3.7795276,0,0,3.7795276,-178.42254,-191.06632)"
       inkscape:collect="always"
       xlink:href="#linearGradient892"
       id="linearGradient32-35"
       x1="50.432499"
       y1="57.390835"
       x2="85.329559"
       y2="57.390835"
       gradientUnits="userSpaceOnUse" /><clipPath
       id="clipPath893"
       clipPathUnits="userSpaceOnUse"><rect
         ry="6.3152952"
         rx="0"
         y="50.552963"
         x="47.014252"
         height="33.866665"
         width="33.866665"
         id="rect895"
         style="font-variation-settings:normal;opacity:1;vector-effect:none;fill:url(#linearGradient897);fill-opacity:1;fill-rule:evenodd;stroke:none;stroke-width:0.0703392;stroke-linecap:butt;stroke-linejoin:miter;stroke-miterlimit:4;stroke-dasharray:none;stroke-dashoffset:0;stroke-opacity:1;stop-color:#000000;stop-opacity:1" /></clipPath><linearGradient
       y2="51.282772"
       x2="63.622772"
       y1="80.642242"
       x1="63.622772"
       gradientUnits="userSpaceOnUse"
       id="linearGradient897"
       xlink:href="#linearGradient64"
       inkscape:collect="always" /><clipPath
       clipPathUnits="userSpaceOnUse"
       id="clipPath893-912"><rect
         style="font-variation-settings:normal;opacity:1;vector-effect:none;fill:url(#linearGradient897);fill-opacity:1;fill-rule:evenodd;stroke:none;stroke-width:0.0703392;stroke-linecap:butt;stroke-linejoin:miter;stroke-miterlimit:4;stroke-dasharray:none;stroke-dashoffset:0;stroke-opacity:1;stop-color:#000000;stop-opacity:1"
         id="rect895-7"
         width="33.866665"
         height="33.866665"
         x="47.014252"
         y="50.552963"
         rx="0"
         ry="6.3152952" /></clipPath><clipPath
       clipPathUnits="userSpaceOnUse"
       id="clipPath893-9"><rect
         style="font-variation-settings:normal;opacity:1;vector-effect:none;fill:url(#linearGradient897);fill-opacity:1;fill-rule:evenodd;stroke:none;stroke-width:0.0703392;stroke-linecap:butt;stroke-linejoin:miter;stroke-miterlimit:4;stroke-dasharray:none;stroke-dashoffset:0;stroke-opacity:1;stop-color:#000000;stop-opacity:1"
         id="rect895-1"
         width="33.866665"
         height="33.866665"
         x="47.014252"
         y="50.552963"
         rx="0"
         ry="6.3152952" /></clipPath><clipPath
       clipPathUnits="userSpaceOnUse"
       id="clipPath893-91"><rect
         style="font-variation-settings:normal;opacity:1;vector-effect:none;fill:url(#linearGradient897);fill-opacity:1;fill-rule:evenodd;stroke:none;stroke-width:0.0703392;stroke-linecap:butt;stroke-linejoin:miter;stroke-miterlimit:4;stroke-dasharray:none;stroke-dashoffset:0;stroke-opacity:1;stop-color:#000000;stop-opacity:1"
         id="rect895-2"
         width="33.866665"
         height="33.866665"
         x="47.014252"
         y="50.552963"
         rx="0"
         ry="6.3152952" /></clipPath></defs><sodipodi:namedview
     inkscape:bbox-nodes="true"
     inkscape:snap-bbox-midpoints="true"
     inkscape:snap-bbox-edge-midpoints="true"
     inkscape:bbox-paths="true"
     inkscape:snap-bbox="true"
     inkscape:snap-global="false"
     id="base"
     pagecolor="#d2d2d2"
     bordercolor="#666666"
     borderopacity="1.0"
     inkscape:pageopacity="0"
     inkscape:pageshadow="2"
     inkscape:zoom="5.866813"
     inkscape:cx="-2.0998762"
     inkscape:cy="31.305471"
     inkscape:document-units="mm"
     inkscape:current-layer="layer1"
     showgrid="false"
     inkscape:window-width="1366"
     inkscape:window-height="743"
     inkscape:window-x="0"
     inkscape:window-y="0"
     inkscape:window-maximized="1"
     inkscape:pagecheckerboard="0"
     fit-margin-top="0"
     fit-margin-left="0"
     fit-margin-right="0"
     fit-margin-bottom="0"
     inkscape:document-rotation="0"
     inkscape:showpageshadow="2"
     inkscape:deskcolor="#d1d1d1"
     showguides="true"><sodipodi:guide
       position="8.4543266,8.4666658"
       orientation="1,0"
       id="guide19"
       inkscape:locked="false" /></sodipodi:namedview><metadata
     id="metadata5"><rdf:RDF><cc:Work
         rdf:about=""><dc:format>image/svg+xml</dc:format><dc:type
           rdf:resource="http://purl.org/dc/dcmitype/StillImage" /></cc:Work></rdf:RDF></metadata><g
     inkscape:label="Capa 1"
     inkscape:groupmode="layer"
     id="layer1"
     transform="translate(-56.768272,-43.370441)"><path
       id="rect42"
       style="font-variation-settings:normal;vector-effect:none;fill:#999999;fill-opacity:1;fill-rule:evenodd;stroke:none;stroke-width:0.25;stroke-linecap:butt;stroke-linejoin:miter;stroke-miterlimit:4;stroke-dasharray:none;stroke-dashoffset:0;stroke-opacity:1;paint-order:stroke fill markers;stop-color:#000000"
       d="m 57.200804,43.370441 c -0.239707,0 -0.432532,0.192825 -0.432532,0.432532 v 7.601603 c 0,0.239707 0.192825,0.432532 0.432532,0.432532 h 24.497729 c 0.239707,0 0.432532,-0.192825 0.432532,-0.432532 v -7.601603 c 0,-0.239707 -0.192825,-0.432532 -0.432532,-0.432532 z"
       sodipodi:nodetypes="sssssssss" /><g
       id="g19"
       transform="translate(-0.14545309,-0.04132983)"><path
         style="fill:#ffffff;fill-opacity:1;stroke-width:0.999997"
         d="m 69.696395,47.443354 c -0.02008,-0.0072 -0.105151,-0.04625 -0.189029,-0.0868 -0.125784,-0.0608 -0.172711,-0.101889 -0.267755,-0.234493 l -0.11524,-0.160775 -0.0025,-0.572025 c -0.0013,-0.314612 -0.004,-0.584497 -0.0061,-0.599741 -0.0021,-0.01524 -0.042,-0.03491 -0.08886,-0.0437 -0.09118,-0.01711 -0.110057,-0.06789 -0.06,-0.161426 0.02265,-0.04233 0.05326,-0.04708 0.302683,-0.04708 0.30893,0 0.402362,0.02239 0.402362,0.09642 0,0.03739 -0.02483,0.05519 -0.105303,0.07545 -0.08632,0.02174 -0.110458,0.04077 -0.133882,0.105525 -0.05196,0.14369 -0.02742,0.641532 0.04848,0.983582 0.03214,0.144882 0.178784,0.335531 0.277034,0.36019 0.03174,0.008 0.07064,0.03006 0.08644,0.04909 0.02746,0.03308 0.08007,0.03209 0.259892,-0.0048 0.03044,-0.0062 0.09546,-0.04921 0.144489,-0.09545 0.08702,-0.08209 0.08959,-0.08969 0.108523,-0.321911 0.038,-0.465987 0.04975,-0.872006 0.02767,-0.955915 -0.01994,-0.07573 -0.03241,-0.08604 -0.112295,-0.09275 -0.07518,-0.0064 -0.08987,-0.01665 -0.08987,-0.06317 0,-0.11651 0.06094,-0.136175 0.421808,-0.136175 h 0.332778 v 0.06022 c 0,0.05984 -0.09849,0.134504 -0.177447,0.134504 -0.05413,0 -0.08796,0.278661 -0.09903,0.815438 -0.01175,0.568152 0.0046,0.662394 0.124043,0.718072 0.05927,0.02761 0.07848,0.05235 0.07888,0.101517 4.23e-4,0.05233 -0.01341,0.06807 -0.07107,0.08073 -0.0395,0.0087 -0.09505,0.0032 -0.123917,-0.0123 -0.03952,-0.02116 -0.0691,-0.02105 -0.120933,4.14e-4 -0.106561,0.04414 -0.178076,-0.0041 -0.16552,-0.111688 0.0054,-0.04567 0.0057,-0.08305 7.92e-4,-0.08305 -0.0048,0 -0.04408,0.02684 -0.08709,0.05963 -0.135871,0.103631 -0.286002,0.158476 -0.429744,0.156988 -0.07363,-7.65e-4 -0.150308,-0.0073 -0.17039,-0.01447 z"
         id="path19" /><path
         style="fill:#ffffff;fill-opacity:1;stroke-width:0.999997"
         d="m 67.761249,47.437443 c -0.141619,-0.03463 -0.293725,-0.131809 -0.44086,-0.281671 -0.169783,-0.172924 -0.266271,-0.351005 -0.306036,-0.564835 -0.02627,-0.141236 -0.02375,-0.158735 0.05336,-0.372594 0.140211,-0.388844 0.275007,-0.51325 0.705913,-0.651504 0.155025,-0.04974 0.161804,-0.0499 0.316438,-0.0079 0.08691,0.02362 0.205662,0.06752 0.263891,0.09758 0.143342,0.07396 0.308261,0.229974 0.344202,0.325619 0.01622,0.04317 0.04071,0.102249 0.05442,0.13127 0.01586,0.03358 0.0185,0.155629 0.0072,0.335693 -0.019,0.304212 -0.07008,0.48889 -0.164152,0.593581 -0.162287,0.180604 -0.238281,0.254335 -0.290137,0.281494 -0.0316,0.01656 -0.07936,0.04169 -0.106146,0.05587 -0.05977,0.03166 -0.265266,0.08112 -0.322873,0.07772 -0.02324,-0.0014 -0.07511,-0.0105 -0.115267,-0.02034 z m 0.348075,-0.303693 c 0.09868,-0.0517 0.215693,-0.187427 0.232614,-0.269833 0.0083,-0.04016 0.03705,-0.154436 0.06402,-0.253939 0.06976,-0.257435 0.06425,-0.379112 -0.02505,-0.552246 -0.123946,-0.240332 -0.302588,-0.318072 -0.555164,-0.241599 -0.165124,0.05 -0.189636,0.0677 -0.281947,0.203591 -0.133357,0.196323 -0.172206,0.561683 -0.08462,0.795793 0.07704,0.205915 0.136079,0.260848 0.330271,0.307354 0.214456,0.05135 0.240893,0.05225 0.319876,0.01092 z"
         id="path18" /><path
         style="fill:#ffffff;fill-opacity:1;stroke-width:0.999997"
         d="m 66.144737,47.415701 c -0.03183,-0.05946 0.01202,-0.119509 0.09517,-0.130178 0.05153,-0.0066 0.06431,-0.02575 0.08347,-0.124913 0.01573,-0.08147 0.01387,-0.141247 -0.0061,-0.19646 -0.04002,-0.110665 -0.03864,-0.55044 0.0018,-0.550935 0.02365,-2.86e-4 0.02382,-0.0046 8.19e-4,-0.0192 -0.01984,-0.01257 -0.03188,-0.114009 -0.03651,-0.30738 -0.0054,-0.227949 -0.01458,-0.292122 -0.04342,-0.305491 -0.153574,-0.07118 -0.183402,-0.09309 -0.190123,-0.139576 -0.01354,-0.09353 0.07012,-0.112932 0.412128,-0.09562 0.341419,0.01727 0.386531,0.02707 0.386531,0.08388 0,0.05366 -0.121362,0.175203 -0.174943,0.175203 -0.0508,0 -0.04714,-0.03152 -0.05933,0.51117 -0.005,0.220899 0.0041,0.522125 0.02012,0.669391 0.02539,0.23319 0.03654,0.273617 0.08647,0.313162 0.0351,0.02781 0.05445,0.06555 0.0499,0.09737 -0.007,0.04936 -0.02222,0.05229 -0.30434,0.05879 -0.270329,0.0062 -0.299139,0.0028 -0.321581,-0.03923 z"
         id="path17" /><path
         style="fill:#ffffff;fill-opacity:1;stroke-width:0.999997"
         d="m 64.949812,47.435941 c 0,-0.0134 -0.01354,-0.02434 -0.03008,-0.02434 -0.0555,0 -0.289595,-0.130952 -0.313306,-0.175254 -0.01285,-0.0241 -0.04015,-0.04382 -0.06054,-0.04382 -0.0204,0 -0.03145,-0.0091 -0.02456,-0.02027 0.0069,-0.01119 -0.01625,-0.06264 -0.05143,-0.11441 -0.112987,-0.166272 -0.152951,-0.308864 -0.152951,-0.545696 0,-0.119551 0.01092,-0.224144 0.02434,-0.232419 0.0134,-0.0083 0.02445,-0.03904 0.02458,-0.06838 3.65e-4,-0.08177 0.107943,-0.285105 0.211256,-0.39929 0.05102,-0.0564 0.162287,-0.14129 0.247247,-0.188646 0.147914,-0.08245 0.16475,-0.08611 0.396518,-0.08611 0.193519,0 0.261063,0.0097 0.336896,0.04839 0.09466,0.04828 0.09488,0.04828 0.110209,0 0.01064,-0.0334 0.03688,-0.04839 0.08485,-0.04839 0.08527,0 0.113388,0.07127 0.13449,0.34078 0.01723,0.22008 -0.0041,0.269176 -0.09575,0.220137 -0.03412,-0.01826 -0.06827,-0.05286 -0.0759,-0.07689 -0.0076,-0.02403 -0.06923,-0.09347 -0.136908,-0.154322 -0.126502,-0.113747 -0.172974,-0.127483 -0.385537,-0.113954 -0.146151,0.0093 -0.240189,0.0715 -0.360145,0.238252 -0.13424,0.186607 -0.171508,0.328292 -0.173804,0.660798 -0.0015,0.218113 0.0015,0.231143 0.08333,0.359035 0.04669,0.07299 0.100715,0.132707 0.120048,0.132707 0.01933,0 0.05855,0.03286 0.08716,0.07302 0.0475,0.06669 0.06416,0.07302 0.1925,0.07302 0.171936,0 0.400475,-0.104875 0.538527,-0.24713 0.09278,-0.0956 0.184814,-0.12143 0.208915,-0.05862 0.0073,0.01926 -0.01624,0.101144 -0.0525,0.181958 -0.07476,0.166607 -0.150416,0.224356 -0.349943,0.267147 -0.158372,0.03397 -0.537499,0.03587 -0.537499,0.0028 z"
         id="path16" /><path
         style="fill:#ffffff;fill-opacity:1;stroke-width:0.999997"
         d="m 59.287696,47.425441 c -0.01642,-0.04279 0.07851,-0.17609 0.136121,-0.191157 0.05872,-0.01535 0.07321,-0.154054 0.08728,-0.83576 0.0065,-0.31511 0.01429,-0.584838 0.01729,-0.599397 0.003,-0.01455 -0.02837,-0.03386 -0.0697,-0.0429 -0.04133,-0.009 -0.08789,-0.02429 -0.103452,-0.03391 -0.03849,-0.02378 -0.03581,-0.124139 0.0043,-0.157356 0.04403,-0.03654 0.94883,-0.04109 0.960918,-0.0048 0.0047,0.01422 0.02246,0.02584 0.03937,0.02584 0.04149,0 0.208608,0.164465 0.208608,0.205292 0,0.01791 0.01636,0.06393 0.03636,0.102277 0.05464,0.104764 0.04454,0.213132 -0.03592,0.385197 -0.07384,0.157916 -0.157983,0.240176 -0.276006,0.269797 -0.03612,0.0091 -0.07171,0.02623 -0.07906,0.03813 -0.0073,0.01188 -0.07024,0.02242 -0.139734,0.02335 -0.214381,0.0029 -0.209268,-0.0048 -0.222515,0.335343 l -0.01175,0.30016 0.09628,0.04043 c 0.09736,0.04089 0.121002,0.09166 0.06756,0.145098 -0.04566,0.04566 -0.698219,0.04053 -0.715931,-0.0057 z m 0.761926,-1.00249 c 0.127926,-0.04343 0.146279,-0.06217 0.239043,-0.244146 0.05732,-0.112448 0.06109,-0.135499 0.0369,-0.225382 -0.03531,-0.131132 -0.23182,-0.294407 -0.354323,-0.294407 -0.04486,0 -0.08698,0.0087 -0.09357,0.01942 -0.0066,0.01064 -0.01942,0.191417 -0.02847,0.401634 -0.01881,0.436673 -0.02826,0.420519 0.200431,0.342879 z"
         id="path15" /><path
         style="fill:#ffffff;fill-opacity:1;stroke-width:0.999997"
         d="m 71.546344,47.467782 c -0.03347,-0.0057 -0.0992,-0.02237 -0.146048,-0.03726 -0.04686,-0.01487 -0.12313,-0.02796 -0.169497,-0.02908 -0.07661,-0.0018 -0.08699,-0.01092 -0.113747,-0.0994 -0.03774,-0.124775 -0.04059,-0.300124 -0.0065,-0.398002 0.04875,-0.13986 0.19235,-0.07052 0.19235,0.09289 0,0.02506 0.0069,0.06338 0.01521,0.08518 0.02185,0.05693 0.236287,0.159081 0.333961,0.159081 0.244685,0 0.424564,-0.206409 0.345268,-0.396191 -0.0665,-0.15914 -0.167361,-0.228262 -0.381768,-0.261615 -0.206397,-0.0321 -0.341015,-0.107114 -0.471026,-0.262464 -0.06155,-0.07355 -0.06611,-0.09248 -0.05285,-0.219426 0.008,-0.07642 0.02675,-0.196003 0.04172,-0.265748 0.02651,-0.1236 0.0313,-0.12899 0.188822,-0.212635 0.138737,-0.07367 0.184805,-0.08582 0.325291,-0.08582 0.09002,0 0.169979,0.01023 0.177697,0.02271 0.0077,0.01244 0.07399,0.03516 0.147285,0.05037 0.168093,0.03489 0.206678,0.08589 0.206678,0.273125 0,0.139621 -5.16e-4,0.140634 -0.07208,0.140634 -0.07444,0 -0.159011,-0.06886 -0.184955,-0.150607 -0.02124,-0.06693 -0.139353,-0.117146 -0.275538,-0.117146 -0.104156,0 -0.133398,0.01147 -0.208112,0.08199 -0.06282,0.05924 -0.08692,0.102608 -0.08692,0.156352 0,0.08095 0.102678,0.224152 0.160713,0.224152 0.01907,0 0.0537,0.0097 0.07695,0.02146 0.02325,0.01175 0.09363,0.0335 0.156415,0.04819 0.06278,0.0147 0.181617,0.07303 0.264081,0.129626 0.125521,0.08615 0.161903,0.128215 0.223435,0.258453 0.0923,0.195349 0.08337,0.299223 -0.04126,0.48019 -0.09946,0.144399 -0.211908,0.227601 -0.388258,0.287253 -0.120063,0.04062 -0.143743,0.0428 -0.257334,0.02373 z"
         id="path14" /><path
         style="fill:#ffffff;fill-opacity:1;stroke-width:0.999997"
         d="m 62.748354,47.45177 c -0.06784,-0.06784 -0.08348,-0.161877 -0.02693,-0.161877 0.01946,0 0.06217,-0.01216 0.09492,-0.02714 l 0.05956,-0.02714 -0.0069,-0.688798 c -0.0039,-0.378839 -0.01433,-0.700714 -0.02333,-0.71528 -0.009,-0.01457 -0.05276,-0.02648 -0.09726,-0.02648 -0.07764,0 -0.08094,-0.0039 -0.0822,-0.09535 -8.93e-4,-0.06451 0.01092,-0.100038 0.03634,-0.109809 0.02072,-0.008 0.316325,-0.007 0.656905,0.0019 0.711354,0.01879 0.662521,-3.65e-4 0.684094,0.268395 0.01216,0.150698 0.01106,0.15394 -0.04758,0.15394 -0.06564,0 -0.165796,-0.09068 -0.165796,-0.15013 0,-0.02908 -0.04165,-0.04097 -0.186233,-0.0532 -0.333306,-0.02818 -0.371814,-0.02366 -0.398564,0.0467 -0.01299,0.03434 -0.02374,0.177285 -0.02374,0.317654 v 0.255215 l 0.13612,-0.0073 0.136121,-0.0073 0.05631,-0.133882 c 0.03974,-0.09447 0.07147,-0.136189 0.107805,-0.141723 0.109145,-0.01662 0.14799,0.235031 0.105497,0.683321 -0.01175,0.124014 -0.01939,0.139963 -0.06689,0.139963 -0.05763,0 -0.134186,-0.06892 -0.134186,-0.120795 0,-0.01747 -0.01271,-0.07411 -0.02819,-0.12588 l -0.02819,-0.09411 h -0.143028 -0.142945 l 0.0068,0.298182 0.0068,0.298182 0.301208,0.0069 0.301207,0.0069 0.0906,-0.09815 c 0.08674,-0.09396 0.146197,-0.115502 0.229966,-0.08336 0.02117,0.0082 0.0385,0.03419 0.0385,0.05792 0,0.05998 -0.120781,0.318036 -0.154723,0.330577 -0.01531,0.0057 -0.263341,0.01516 -0.55118,0.0211 -0.287837,0.0059 -0.55829,0.0181 -0.601005,0.02702 -0.06346,0.01327 -0.08907,0.0048 -0.139964,-0.0461 z"
         id="path13" /><path
         style="fill:#ffffff;fill-opacity:1;stroke-width:0.999997"
         d="m 62.097437,47.57435 c -0.18139,-0.123448 -0.23486,-0.267099 -0.245263,-0.65894 l -0.0083,-0.31363 -0.07181,-0.05746 c -0.05601,-0.04482 -0.101254,-0.05741 -0.205687,-0.05721 -0.207113,3.87e-4 -0.205053,-0.0033 -0.206042,0.377441 -4.96e-4,0.19328 0.0093,0.340229 0.02348,0.351561 0.01341,0.01064 0.06252,0.02765 0.109187,0.03764 0.07733,0.01657 0.143664,0.06906 0.145623,0.11524 0.0015,0.035 -0.09856,0.117284 -0.123711,0.101738 -0.01393,-0.0086 -0.166218,-0.01396 -0.338405,-0.01188 -0.295832,0.0036 -0.314586,9.45e-4 -0.340629,-0.04772 -0.03752,-0.07009 0.02667,-0.169936 0.109242,-0.169936 0.0481,0 0.06143,-0.01481 0.07111,-0.07912 0.0229,-0.151851 0.05778,-0.956231 0.04589,-1.058458 -0.0066,-0.05669 -8.27e-4,-0.135015 0.01285,-0.174066 0.03111,-0.08924 -0.024,-0.184118 -0.09602,-0.165286 -0.06346,0.0166 -0.122633,-0.04931 -0.113664,-0.126585 l 0.0075,-0.06387 0.449992,-0.0072 c 0.447625,-0.007 0.45068,-0.0068 0.580478,0.05887 0.15875,0.08032 0.244022,0.199155 0.26143,0.364329 0.01596,0.151402 -0.01805,0.215862 -0.164672,0.312199 -0.06281,0.04126 -0.112089,0.08258 -0.109532,0.09182 0.0025,0.0093 0.0424,0.04214 0.08853,0.0731 0.136978,0.09195 0.175,0.184052 0.197013,0.477108 0.02758,0.367293 0.07678,0.471577 0.243675,0.516516 0.07324,0.01972 0.09614,0.03807 0.09614,0.07703 0,0.137806 -0.238858,0.158773 -0.41823,0.0367 z m -0.33195,-1.288542 c 0.05181,-0.04143 0.09296,-0.174233 0.09296,-0.300044 0,-0.0906 -0.01175,-0.113844 -0.09064,-0.178847 -0.102277,-0.0843 -0.221734,-0.116138 -0.292907,-0.07804 -0.08315,0.0445 -0.1219,0.373958 -0.0655,0.556934 0.0062,0.02016 0.06147,0.03043 0.163708,0.03043 0.08694,0 0.170946,-0.01327 0.192383,-0.03043 z"
         id="path12" /><path
         style="fill:#ffffff;fill-opacity:1;stroke-width:0.999997"
         d="m 74.335179,49.577336 c 0,-0.09903 0.0068,-0.121707 0.03043,-0.102125 0.05698,0.04712 0.159245,0.0058 0.189163,-0.07652 0.03829,-0.105303 0.08072,-1.232358 0.04947,-1.314529 l -0.02399,-0.0631 -0.238158,0.01481 c -0.24432,0.0152 -0.306944,0.03999 -0.336543,0.133246 -0.0178,0.05607 -0.121638,0.06115 -0.142427,0.0069 -0.01828,-0.04763 -0.01976,-0.497008 -0.0017,-0.497008 0.0072,0 0.05379,0.02043 0.103452,0.0454 0.134089,0.0674 0.20843,0.07465 0.820554,0.0801 0.493535,0.0044 0.569535,-1e-4 0.641585,-0.03789 0.0457,-0.02396 0.105883,-0.0368 0.136507,-0.02912 0.05019,0.01257 0.05593,0.03162 0.06846,0.22714 0.0075,0.117367 0.0048,0.222621 -0.0061,0.233901 -0.03152,0.03268 -0.113056,-0.02445 -0.14502,-0.101613 l -0.02932,-0.0708 -0.245071,0.0029 c -0.29492,0.0035 -0.282684,-0.01285 -0.288518,0.384806 -0.0022,0.151435 -0.01327,0.412258 -0.02453,0.579606 -0.0261,0.387628 -0.007,0.463576 0.132362,0.526602 0.07371,0.03333 0.102346,0.06162 0.107569,0.106271 0.0072,0.06076 0.0068,0.06085 -0.18256,0.05477 -0.469073,-0.01504 -0.532963,-0.01461 -0.573068,0.0039 -0.03764,0.01733 -0.04259,0.0048 -0.04259,-0.10768 z"
         id="path11" /><path
         style="fill:#ffffff;fill-opacity:1;stroke-width:0.999997"
         d="m 75.920165,49.701659 c -0.05683,-0.03599 -0.01354,-0.148289 0.05709,-0.148289 0.03242,0 0.06781,-0.01368 0.07865,-0.03043 0.02482,-0.03833 0.02619,-0.869873 0.0014,-0.870065 -0.01009,-7.8e-5 -0.01825,-0.137405 -0.01825,-0.305175 0,-0.222798 -0.0082,-0.307559 -0.03043,-0.314405 -0.01673,-0.0051 -0.06092,-0.01607 -0.0982,-0.02425 -0.04039,-0.0088 -0.07934,-0.04026 -0.0964,-0.07772 -0.02458,-0.05396 -0.02189,-0.06791 0.01909,-0.09861 0.03828,-0.0287 0.110306,-0.0335 0.364158,-0.02427 0.174042,0.0064 0.335608,0.01932 0.359038,0.02887 0.09253,0.03773 0.0223,0.171272 -0.121707,0.231473 -0.03013,0.01258 -0.05583,0.04233 -0.05714,0.0661 -0.0183,0.333031 -0.01486,0.923523 0.0065,1.114224 0.02226,0.198843 0.03775,0.254802 0.08459,0.3056 0.03154,0.0342 0.05734,0.08623 0.05734,0.115627 0,0.05202 -0.0076,0.05342 -0.286011,0.05307 -0.157307,-2.03e-4 -0.301187,-0.0099 -0.319734,-0.02172 z"
         id="path10" /><path
         style="fill:#ffffff;fill-opacity:1;stroke-width:0.999997"
         d="m 72.655619,49.661756 c -0.06024,-0.03126 -0.122259,-0.05747 -0.137792,-0.05826 -0.01555,-7.92e-4 -0.05591,-0.0343 -0.08972,-0.07446 -0.03379,-0.04016 -0.0707,-0.07302 -0.08202,-0.07302 -0.01133,0 -0.03339,-0.03013 -0.04903,-0.06694 -0.01566,-0.03681 -0.05283,-0.110748 -0.08261,-0.164304 -0.08889,-0.159838 -0.09164,-0.169899 -0.108938,-0.3991 -0.0105,-0.139648 -0.0075,-0.231839 0.0083,-0.251469 0.01368,-0.01704 0.03304,-0.06933 0.0429,-0.116193 0.02471,-0.117519 0.07718,-0.215041 0.173587,-0.322594 0.04504,-0.05025 0.08188,-0.101904 0.08188,-0.114797 0,-0.01285 0.07942,-0.06748 0.176475,-0.12132 0.174634,-0.09685 0.179161,-0.09787 0.433495,-0.09819 0.188704,-2.4e-4 0.269576,0.0091 0.304268,0.03542 0.06139,0.04643 0.1236,0.04677 0.141248,7.73e-4 0.01598,-0.04165 0.126295,-0.04957 0.150266,-0.01078 0.016,0.0259 0.05243,0.218781 0.07585,0.401639 0.0091,0.07071 0.0021,0.107473 -0.02439,0.129487 -0.05014,0.04161 -0.111702,0.0062 -0.193471,-0.111148 -0.03553,-0.05101 -0.103894,-0.123877 -0.15191,-0.161944 -0.07565,-0.05996 -0.109629,-0.06955 -0.254287,-0.07178 -0.215007,-0.0033 -0.296303,0.04017 -0.443234,0.237088 -0.130427,0.174802 -0.166773,0.301591 -0.18266,0.637262 -0.01009,0.213516 -0.0076,0.226822 0.06309,0.340781 0.04048,0.06523 0.128119,0.165142 0.194764,0.222039 0.110016,0.09393 0.133081,0.103382 0.25053,0.102691 0.175688,-10e-4 0.459403,-0.142165 0.546166,-0.271683 0.06244,-0.09321 0.17956,-0.09758 0.17956,-0.0066 0,0.03391 -0.03013,0.12085 -0.06694,0.193217 -0.04936,0.09702 -0.08931,0.141276 -0.152134,0.168551 -0.151669,0.06585 -0.275816,0.08753 -0.486829,0.08503 -0.166072,-0.0019 -0.228519,-0.01368 -0.316439,-0.05928 z"
         id="path9" /><path
         style="fill:#ffffff;fill-opacity:1;stroke-width:0.999997"
         d="m 68.911903,49.694552 c -0.05471,-0.05471 -0.03225,-0.136383 0.05598,-0.203685 0.08268,-0.06306 0.0852,-0.06988 0.0852,-0.230899 0,-0.09125 -0.01,-0.191997 -0.02204,-0.223874 -0.01327,-0.03503 -0.01285,-0.105483 0.0011,-0.17806 0.02664,-0.138251 0.03561,-0.65627 0.01258,-0.728639 -0.0095,-0.03018 -0.03885,-0.05003 -0.07699,-0.05221 -0.08613,-0.005 -0.182453,-0.07375 -0.182453,-0.130344 0,-0.08785 0.11025,-0.132666 0.311598,-0.126655 0.100411,0.003 0.217473,-0.0072 0.260127,-0.02259 0.04433,-0.01603 0.115667,-0.0209 0.166523,-0.01133 0.105275,0.01975 0.136645,0.09397 0.08511,0.20141 -0.0274,0.05713 -0.04896,0.06915 -0.127677,0.07122 -0.13156,0.0035 -0.169034,0.05901 -0.146068,0.216582 0.0098,0.06694 0.02011,0.34078 0.023,0.608535 0.0032,0.300866 0.01607,0.513806 0.03355,0.55745 l 0.0283,0.07062 0.283967,-0.01521 0.283965,-0.01521 0.162935,-0.161688 0.162937,-0.161688 0.0156,0.09411 c 0.01585,0.09557 -0.01036,0.282891 -0.0567,0.404468 l -0.02548,0.06694 h -0.652953 c -0.475398,0 -0.660897,-0.0079 -0.682164,-0.02921 z"
         id="path8" /><path
         style="fill:#ffffff;fill-opacity:1;stroke-width:0.999997"
         d="m 67.208002,49.694552 c -0.05471,-0.05471 -0.03225,-0.136383 0.05598,-0.203685 0.08268,-0.06306 0.0852,-0.06988 0.0852,-0.230899 0,-0.09125 -0.01,-0.191997 -0.02204,-0.223874 -0.01327,-0.03503 -0.01285,-0.105483 0.0011,-0.17806 0.02664,-0.138251 0.03561,-0.65627 0.01258,-0.728639 -0.0095,-0.03018 -0.03885,-0.05003 -0.07699,-0.05221 -0.08615,-0.005 -0.182454,-0.07375 -0.182454,-0.130344 0,-0.08785 0.110251,-0.132666 0.311599,-0.126655 0.100411,0.003 0.217473,-0.0072 0.260126,-0.02259 0.04433,-0.01603 0.115668,-0.0209 0.166523,-0.01133 0.105276,0.01975 0.136646,0.09397 0.08511,0.20141 -0.0274,0.05713 -0.04896,0.06915 -0.127677,0.07122 -0.13156,0.0035 -0.169034,0.05901 -0.146068,0.216582 0.0098,0.06694 0.02011,0.34078 0.023,0.608535 0.0033,0.300866 0.01607,0.513806 0.03355,0.55745 l 0.0283,0.07062 0.283966,-0.01521 0.283966,-0.01521 0.162935,-0.161688 0.162937,-0.161688 0.0156,0.09411 c 0.01585,0.09557 -0.01036,0.282891 -0.0567,0.404468 l -0.02548,0.06694 h -0.652953 c -0.475398,0 -0.660896,-0.0079 -0.682164,-0.02921 z"
         id="path7" /><path
         style="fill:#ffffff;fill-opacity:1;stroke-width:0.999997"
         d="m 65.900866,49.700921 c -0.141619,-0.03463 -0.293724,-0.131809 -0.44086,-0.28167 -0.169783,-0.172924 -0.266269,-0.351007 -0.306036,-0.564835 -0.02627,-0.141237 -0.02376,-0.158735 0.05336,-0.372594 0.140211,-0.388844 0.275008,-0.513251 0.705914,-0.651505 0.155025,-0.04974 0.161804,-0.0499 0.316439,-0.0079 0.08691,0.02362 0.205661,0.06752 0.26389,0.09758 0.143342,0.07396 0.308261,0.229975 0.344202,0.32562 0.01622,0.04317 0.04071,0.102249 0.05442,0.131269 0.01586,0.03358 0.0185,0.155631 0.0072,0.335694 -0.019,0.304213 -0.07008,0.488891 -0.164152,0.59358 -0.162287,0.180607 -0.238281,0.254337 -0.290137,0.281496 -0.0316,0.01656 -0.07936,0.04169 -0.106146,0.05588 -0.05977,0.03165 -0.265266,0.08112 -0.322873,0.07772 -0.02323,-0.0014 -0.07511,-0.0105 -0.115267,-0.02034 z m 0.348075,-0.303692 c 0.09868,-0.0517 0.215693,-0.187428 0.232615,-0.269834 0.0083,-0.04016 0.03705,-0.154436 0.06401,-0.253938 0.06976,-0.257436 0.06425,-0.379112 -0.02505,-0.552247 -0.123945,-0.240331 -0.302586,-0.318073 -0.555163,-0.241598 -0.165123,0.05 -0.189636,0.0677 -0.281947,0.203591 -0.133356,0.196323 -0.172206,0.561682 -0.08462,0.795793 0.07704,0.205913 0.136065,0.260847 0.330269,0.307353 0.214457,0.05135 0.240893,0.05226 0.319876,0.01092 z"
         id="path6" /><path
         style="fill:#ffffff;fill-opacity:1;stroke-width:0.999997"
         d="m 63.941379,49.661756 c -0.06024,-0.03126 -0.122259,-0.05747 -0.137792,-0.05826 -0.01555,-7.92e-4 -0.05591,-0.0343 -0.08972,-0.07446 -0.03379,-0.04016 -0.0707,-0.07302 -0.08202,-0.07302 -0.01133,0 -0.03339,-0.03013 -0.04903,-0.06694 -0.01566,-0.03681 -0.05283,-0.110748 -0.08261,-0.164304 -0.08889,-0.159838 -0.09164,-0.169899 -0.108938,-0.3991 -0.0105,-0.139648 -0.0075,-0.231839 0.0083,-0.251469 0.01368,-0.01704 0.03304,-0.06933 0.0429,-0.116193 0.02471,-0.117519 0.07718,-0.215041 0.173587,-0.322594 0.04504,-0.05025 0.08188,-0.101904 0.08188,-0.114797 0,-0.01285 0.07942,-0.06748 0.176475,-0.12132 0.174632,-0.09685 0.17916,-0.09787 0.433493,-0.09819 0.188705,-2.4e-4 0.269577,0.0091 0.304269,0.03542 0.06139,0.04643 0.1236,0.04677 0.141247,7.73e-4 0.01597,-0.04165 0.126295,-0.04957 0.150266,-0.01078 0.016,0.0259 0.05243,0.218781 0.07585,0.401639 0.0091,0.07071 0.0021,0.107473 -0.02439,0.129487 -0.05014,0.04161 -0.111701,0.0062 -0.193472,-0.111148 -0.03553,-0.05101 -0.103893,-0.123877 -0.15191,-0.161944 -0.07565,-0.05996 -0.109629,-0.06955 -0.254287,-0.07178 -0.215006,-0.0033 -0.296303,0.04017 -0.443234,0.237088 -0.130427,0.174802 -0.166773,0.301591 -0.182658,0.637262 -0.01009,0.213516 -0.0076,0.226822 0.06308,0.340781 0.04048,0.06523 0.128119,0.165142 0.194764,0.222039 0.110016,0.09393 0.13308,0.103382 0.250529,0.102691 0.175689,-10e-4 0.459403,-0.142165 0.546166,-0.271683 0.06244,-0.09321 0.17956,-0.09758 0.17956,-0.0066 0,0.03391 -0.03013,0.12085 -0.06694,0.193217 -0.04936,0.09702 -0.08932,0.141276 -0.152135,0.168551 -0.151668,0.06585 -0.275816,0.08753 -0.486828,0.08503 -0.166071,-0.0019 -0.22852,-0.01368 -0.31644,-0.05928 z"
         id="path5" /><path
         style="fill:#ffffff;fill-opacity:1;stroke-width:0.999997"
         d="m 77.484878,49.729473 c -0.01477,-0.0098 -0.110057,-0.266094 -0.211758,-0.569463 -0.101696,-0.303369 -0.213916,-0.620524 -0.249382,-0.70479 -0.03547,-0.08427 -0.06857,-0.186572 -0.07357,-0.227347 -0.0053,-0.04308 -0.03232,-0.08944 -0.06454,-0.110651 -0.09028,-0.05945 -0.164982,-0.141224 -0.164982,-0.180598 0,-0.06705 0.08209,-0.08095 0.405706,-0.06867 0.279362,0.01064 0.321949,0.01766 0.331711,0.055 0.01556,0.05952 -0.0087,0.09024 -0.08652,0.109781 -0.0511,0.01285 -0.06669,0.0314 -0.06669,0.07945 0,0.07269 0.06408,0.324634 0.109629,0.43102 0.01719,0.04016 0.05971,0.16613 0.0945,0.279925 0.03477,0.113803 0.0728,0.221596 0.08451,0.239554 0.01873,0.02873 0.07784,-0.173034 0.134393,-0.458626 0.0066,-0.03347 0.0343,-0.121099 0.06148,-0.194732 0.02775,-0.07515 0.04978,-0.195274 0.05022,-0.273841 7.91e-4,-0.139097 3.5e-4,-0.139964 -0.07138,-0.139964 -0.08756,0 -0.137668,-0.07234 -0.0995,-0.143674 0.02233,-0.04173 0.04945,-0.04555 0.274698,-0.03854 0.137447,0.0043 0.269083,0.01533 0.292511,0.02457 0.07914,0.03123 0.04898,0.104847 -0.06407,0.156339 -0.123379,0.0562 -0.133965,0.07628 -0.161112,0.305577 -0.01105,0.09371 -0.04207,0.230635 -0.06881,0.304269 -0.02675,0.07363 -0.08346,0.298182 -0.125991,0.498999 -0.04255,0.200817 -0.0998,0.417589 -0.127248,0.481716 -0.05958,0.139237 -0.133343,0.191613 -0.203792,0.144704 z"
         id="path4" /><path
         style="fill:#ffffff;fill-opacity:1;stroke-width:0.999997"
         d="m 78.515492,49.756386 c -0.03657,-0.01023 -0.115295,-0.123199 -0.115295,-0.165492 0,-0.0075 0.04349,-0.03098 0.09664,-0.05225 l 0.09664,-0.03867 0.0068,-0.692624 c 0.004,-0.414783 -0.0025,-0.701889 -0.01632,-0.715719 -0.01271,-0.01271 -0.0623,-0.02309 -0.110181,-0.02309 -0.08691,0 -0.08703,-1.65e-4 -0.07775,-0.09755 0.0072,-0.07549 0.0211,-0.100356 0.0615,-0.110002 0.0287,-0.0069 0.320433,-0.004 0.648282,0.0062 l 0.596085,0.01873 0.03137,0.06555 c 0.01725,0.03604 0.0338,0.123669 0.03679,0.194731 0.0051,0.123061 0.0024,0.129542 -0.05869,0.136618 -0.04605,0.0054 -0.07863,-0.01106 -0.115627,-0.05805 -0.02833,-0.03601 -0.0515,-0.07925 -0.0515,-0.09609 0,-0.03494 -0.44685,-0.07617 -0.532132,-0.0491 -0.06462,0.02051 -0.08106,0.110181 -0.07161,0.390536 l 0.0073,0.219073 0.123862,0.0072 c 0.140496,0.0082 0.15341,-0.0021 0.216798,-0.171525 0.03293,-0.08806 0.05557,-0.115627 0.09493,-0.115627 0.08725,0 0.108772,0.07275 0.10891,0.368226 7.2e-5,0.152253 5.52e-4,0.317899 0.0011,0.368103 8.27e-4,0.07917 -0.0064,0.09128 -0.05474,0.09128 -0.07444,0 -0.162251,-0.08528 -0.162251,-0.157584 0,-0.03207 -0.01064,-0.08641 -0.02374,-0.120753 -0.02186,-0.05749 -0.03536,-0.06244 -0.170389,-0.06244 h -0.146681 v 0.289495 c 0,0.241524 0.0064,0.29194 0.0385,0.304267 0.02117,0.0082 0.162285,0.01477 0.313575,0.01477 h 0.275071 l 0.0991,-0.0991 c 0.07686,-0.07686 0.114369,-0.09734 0.16717,-0.09128 0.09432,0.01078 0.100066,0.09852 0.01783,0.272178 l -0.06499,0.137267 -0.210138,3.77e-4 c -0.115571,2.04e-4 -0.226201,0.0105 -0.245835,0.02295 -0.02262,0.01432 -0.04712,0.01313 -0.06691,-0.0033 -0.02908,-0.02413 -0.478106,-0.01433 -0.639803,0.01397 -0.03347,0.0058 -0.08017,0.0053 -0.103783,-0.0013 z"
         id="path3" /><path
         style="fill:#ffffff;fill-opacity:1;stroke-width:0.999997"
         d="m 70.573068,49.745835 c -0.02751,-0.01392 -0.06241,-0.05806 -0.07751,-0.09809 -0.0234,-0.06198 -0.02138,-0.07467 0.01354,-0.08539 0.02255,-0.0069 0.06839,-0.02753 0.101862,-0.04577 l 0.06085,-0.03318 -0.0047,-0.683251 c -0.0026,-0.375788 -0.01147,-0.694133 -0.01969,-0.707432 -0.0082,-0.01327 -0.05591,-0.02418 -0.10598,-0.02418 -0.09083,0 -0.09101,-2.12e-4 -0.08062,-0.09128 0.0058,-0.05021 0.02271,-0.09942 0.03771,-0.109352 0.01501,-0.01 0.301124,-0.01133 0.635819,-0.0032 0.7163,0.01754 0.69432,0.0095 0.7014,0.254754 0.0043,0.146383 10e-4,0.156454 -0.05228,0.164002 -0.06698,0.0095 -0.13998,-0.04949 -0.16,-0.129266 -0.01327,-0.05276 -0.03035,-0.05799 -0.241455,-0.07382 -0.124968,-0.0094 -0.247965,-0.01299 -0.273338,-0.0082 -0.08221,0.01584 -0.1088,0.113028 -0.102208,0.373575 l 0.0062,0.243415 0.135512,0.0072 0.135512,0.0072 0.06349,-0.14713 c 0.04461,-0.103396 0.07675,-0.14713 0.108137,-0.14713 0.09613,0 0.103202,0.04983 0.106229,0.748499 2.94e-4,0.06789 -0.0082,0.07912 -0.05951,0.07912 -0.07211,0 -0.160748,-0.103369 -0.160748,-0.187444 0,-0.123144 -0.0385,-0.153337 -0.195588,-0.153337 h -0.145193 v 0.275059 c 0,0.181479 0.01,0.284996 0.02921,0.304268 0.01943,0.01943 0.125714,0.02921 0.317413,0.02921 h 0.288205 l 0.09262,-0.09737 c 0.08876,-0.09331 0.148605,-0.114603 0.232047,-0.08258 0.056,0.02149 0.04787,0.07512 -0.03735,0.246494 l -0.07586,0.152535 -0.210161,3.77e-4 c -0.115585,2.03e-4 -0.226224,0.0105 -0.245856,0.02295 -0.02259,0.01429 -0.04707,0.01313 -0.06668,-0.0032 -0.02939,-0.02439 -0.447022,-0.01425 -0.627873,0.01527 -0.04016,0.0065 -0.09555,5.34e-4 -0.123061,-0.01341 z"
         id="path2" /></g></g></svg>
